<svg width="1440" height="945" viewBox="0 0 1440 945" fill="none" xmlns="http://www.w3.org/2000/svg">
<path d="M642 943H798.5" stroke="white" stroke-width="3" stroke-linecap="round"/>
<ellipse cx="720" cy="602" rx="720" ry="135" fill="url(#paint0_radial_884_4)"/>
<path d="M315.17 134.93H918.394V587.816C918.366 587.888 918.325 587.989 918.266 588.118C918.115 588.448 917.848 588.962 917.403 589.633C916.514 590.975 914.909 592.955 912.085 595.363C906.432 600.183 895.903 606.713 876.492 613.273C837.659 626.396 763.474 639.578 622.232 639.578C480.995 639.578 404.072 626.398 362.5 613.265C341.718 606.701 329.803 600.158 323.11 595.306C319.765 592.881 317.727 590.88 316.537 589.512C315.943 588.828 315.56 588.301 315.332 587.958C315.265 587.858 315.212 587.773 315.17 587.705V134.93Z" fill="#323232" stroke="white" stroke-width="2.3359"/>
<path d="M917.753 181.274C917.753 185.381 915.828 189.502 911.931 193.607C908.029 197.719 902.216 201.74 894.629 205.608C879.459 213.34 857.431 220.338 830.114 226.227C775.5 238.002 699.995 245.294 616.556 245.294C533.118 245.294 457.613 238.002 402.998 226.227C375.681 220.338 353.653 213.34 338.483 205.608C330.896 201.74 325.083 197.719 321.182 193.607C317.285 189.502 315.359 185.381 315.359 181.274C315.359 177.166 317.285 173.046 321.182 168.94C325.083 164.829 330.896 160.807 338.483 156.94C353.653 149.207 375.681 142.209 402.998 136.32C457.613 124.545 533.118 117.253 616.556 117.253C699.995 117.253 775.5 124.545 830.114 136.32C857.431 142.209 879.459 149.207 894.629 156.94C902.216 160.807 908.029 164.829 911.931 168.94C915.828 173.046 917.753 177.166 917.753 181.274Z" fill="#727070" stroke="white" stroke-width="2.3359"/>
<path d="M334.226 135.34L316.273 142.437V181.967C316.273 181.967 316.155 182.825 316.273 183.354C316.404 183.945 317.659 186.821 317.659 186.821L341.931 166.302L334.226 135.34Z" fill="#727070"/>
<path d="M899.08 134.115L917.482 141.19V180.595C917.482 180.595 917.602 181.45 917.482 181.977C917.347 182.567 914.761 186.821 914.761 186.821L891.182 164.98L899.08 134.115Z" fill="#727070"/>
<path d="M918.394 133.921C918.394 138.007 916.468 142.108 912.566 146.197C908.659 150.291 902.838 154.296 895.24 158.147C880.049 165.848 857.99 172.816 830.635 178.681C775.945 190.407 700.336 197.669 616.782 197.669C533.229 197.669 457.619 190.407 402.929 178.681C375.574 172.816 353.516 165.848 338.324 158.147C330.726 154.296 324.905 150.291 320.998 146.197C317.096 142.108 315.17 138.007 315.17 133.921C315.17 129.834 317.096 125.733 320.998 121.644C324.905 117.551 330.726 113.545 338.324 109.694C353.516 101.994 375.574 95.0251 402.929 89.1603C457.619 77.4347 533.229 70.1728 616.782 70.1728C700.336 70.1728 775.945 77.4347 830.635 89.1603C857.99 95.0251 880.049 101.994 895.24 109.694C902.838 113.545 908.659 117.551 912.566 121.644C916.468 125.733 918.394 129.834 918.394 133.921Z" fill="#727070" stroke="white" stroke-width="2.3359"/>
<path d="M642.367 442.697H643.778C643.966 442.567 644.171 442.362 644.395 442.08C644.806 441.562 645.041 440.916 645.1 440.14L645.453 434.937L644.218 434.584V434.319H652.596V434.584L651.538 434.849V442.697H653.125V446.048H652.596C652.29 445.848 652.037 445.607 651.837 445.325C651.344 444.69 651.097 443.961 651.097 443.138H644.395C644.395 443.949 644.142 444.678 643.636 445.325C643.437 445.607 643.19 445.848 642.896 446.048H642.367V442.697ZM648.716 442.697V434.76H645.982L645.629 440.14C645.571 440.88 645.347 441.527 644.959 442.08C644.783 442.326 644.595 442.532 644.395 442.697H648.716ZM654.893 443.402C654.364 443.402 653.952 443.261 653.658 442.979C653.364 442.697 653.217 442.309 653.217 441.815C653.217 441.427 653.346 441.098 653.605 440.827C653.876 440.545 654.187 440.404 654.54 440.404C654.634 440.404 654.728 440.416 654.822 440.439C654.916 440.451 654.981 440.457 655.016 440.457L655.245 440.492V442.873C655.528 442.744 655.774 442.485 655.986 442.097C656.198 441.709 656.333 441.057 656.392 440.14L656.744 434.937L655.51 434.584V434.319H663.711V434.584L662.653 434.849V442.609L663.711 442.873V443.138H658.773V442.873L659.831 442.609V434.76H657.274L656.921 440.14C656.85 441.256 656.627 442.08 656.251 442.609C655.874 443.138 655.422 443.402 654.893 443.402ZM664.504 442.873L665.386 442.609L666.092 440.492C666.28 439.928 666.78 439.516 667.591 439.258C667.92 439.164 668.302 439.105 668.737 439.081V438.993C668.196 438.981 667.667 438.887 667.15 438.711C666.092 438.335 665.563 437.694 665.563 436.789C665.563 436.06 665.921 435.466 666.638 435.007C667.367 434.549 668.537 434.319 670.148 434.319H674.822V434.584L673.764 434.849V442.609L674.822 442.873V443.138H669.884V442.873L670.942 442.609V439.258H669.531L668.737 441.727C668.608 442.115 668.355 442.45 667.979 442.732C667.614 443.002 667.162 443.138 666.621 443.138H664.504V442.873ZM670.942 438.817V434.76H670.148C669.643 434.76 669.237 434.937 668.931 435.289C668.625 435.63 668.473 436.13 668.473 436.789C668.473 437.447 668.625 437.953 668.931 438.305C669.237 438.646 669.643 438.817 670.148 438.817H670.942ZM685.935 443.402C684.43 443.402 683.261 442.991 682.426 442.168C681.591 441.333 681.174 440.187 681.174 438.729C681.174 437.271 681.591 436.13 682.426 435.307C683.261 434.472 684.43 434.055 685.935 434.055C687.017 434.055 687.828 434.243 688.369 434.619C688.922 434.996 689.198 435.454 689.198 435.995C689.198 436.395 689.075 436.718 688.828 436.965C688.593 437.2 688.275 437.318 687.875 437.318C687.711 437.318 687.546 437.306 687.382 437.282L687.17 437.229V434.584L686.923 434.496C686.747 434.437 686.535 434.408 686.288 434.408C685.618 434.408 685.095 434.725 684.719 435.36C684.354 435.995 684.172 437.118 684.172 438.729C684.172 440.292 684.354 441.392 684.719 442.027C685.095 442.65 685.618 442.961 686.288 442.961C686.747 442.961 687.17 442.856 687.558 442.644C687.958 442.42 688.269 442.132 688.493 441.78C688.728 441.415 688.845 441.045 688.845 440.669H689.286C689.286 441.139 689.145 441.586 688.863 442.009C688.581 442.432 688.187 442.773 687.681 443.032C687.176 443.279 686.594 443.402 685.935 443.402ZM693.793 443.402C692.746 443.402 691.941 443.179 691.376 442.732C690.812 442.285 690.53 441.715 690.53 441.021C690.53 440.563 690.63 440.11 690.83 439.663C690.912 439.452 691.018 439.258 691.147 439.081C691.629 438.964 692.152 438.858 692.717 438.764C693.987 438.552 695.109 438.423 696.085 438.376V437.847C696.085 436.542 695.927 435.642 695.609 435.148C695.292 434.655 694.804 434.408 694.145 434.408C693.898 434.408 693.687 434.437 693.51 434.496L693.264 434.584V437.229L693.034 437.282C692.846 437.306 692.687 437.318 692.558 437.318C692.158 437.318 691.835 437.2 691.588 436.965C691.353 436.718 691.235 436.395 691.235 435.995C691.235 435.454 691.506 434.996 692.047 434.619C692.599 434.243 693.416 434.055 694.498 434.055C695.415 434.055 696.203 434.22 696.861 434.549C697.532 434.866 698.037 435.313 698.378 435.889C698.731 436.453 698.907 437.106 698.907 437.847V442.609L699.965 442.873V443.138H698.378C697.673 443.138 697.126 442.92 696.738 442.485C696.573 442.309 696.444 442.085 696.35 441.815C696.185 442.109 695.991 442.373 695.768 442.609C695.239 443.138 694.58 443.402 693.793 443.402ZM694.498 442.785C694.933 442.785 695.327 442.55 695.68 442.08C695.809 441.903 695.944 441.668 696.085 441.374V438.817C695.545 438.817 695.027 438.846 694.533 438.905C694.169 438.952 693.922 438.981 693.793 438.993C693.734 439.122 693.675 439.299 693.616 439.522C693.499 439.969 693.44 440.41 693.44 440.845C693.44 441.503 693.54 441.991 693.74 442.309C693.94 442.626 694.192 442.785 694.498 442.785ZM702.619 436.436V442.344L704.03 442.873V443.138H700.679V442.873L702.09 442.344V434.849L700.855 434.584V434.319H703.236C703.812 434.319 704.277 434.443 704.63 434.69C704.982 434.937 705.282 435.284 705.529 435.73L707.928 439.981L709.85 435.73C710.073 435.26 710.356 434.907 710.697 434.672C711.038 434.437 711.52 434.319 712.143 434.319H713.906V434.584L712.848 434.849V442.609L713.906 442.873V443.138H708.968V442.873L710.026 442.609V436.436L706.922 443.314H706.499L702.619 436.436ZM715.31 442.873L716.368 442.609V434.849L715.31 434.584V434.319H720.248V434.584L719.19 434.849V437.847H720.072C723.129 437.847 724.657 438.729 724.657 440.492C724.657 442.256 723.129 443.138 720.072 443.138H715.31V442.873ZM725.01 443.138V442.873L726.068 442.609V434.849L725.01 434.584V434.319H729.948V434.584L728.89 434.849V442.609L729.948 442.873V443.138H725.01ZM720.072 442.697C720.589 442.697 720.995 442.515 721.288 442.15C721.594 441.774 721.747 441.221 721.747 440.492C721.747 439.763 721.594 439.217 721.288 438.852C720.995 438.476 720.589 438.288 720.072 438.288H719.19V442.697H720.072ZM730.833 442.873L732.243 442.344L734.43 439.54L731.45 434.849L730.568 434.584V434.319H732.949C733.513 434.319 733.972 434.449 734.325 434.707C734.677 434.954 735.012 435.325 735.33 435.819L736.229 437.247L737.887 435.113L736.564 434.584V434.319H739.915V434.584L738.504 435.113L736.494 437.67L739.651 442.609L740.533 442.873V443.138H738.152C737.587 443.138 737.129 443.014 736.776 442.767C736.423 442.52 736.088 442.144 735.771 441.639L734.713 439.981L732.861 442.344L734.183 442.873V443.138H730.833V442.873ZM643.248 463.138V462.873L644.307 462.609V454.849L643.248 454.584V454.319H648.187V454.584L647.128 454.849V458.464H649.774V454.849L648.716 454.584V454.319H653.654V454.584L652.596 454.849V462.609L653.654 462.873V463.138H648.716V462.873L649.774 462.609V458.905H647.128V462.609L648.187 462.873V463.138H643.248ZM659.825 463.402C658.32 463.402 657.15 462.991 656.316 462.168C655.481 461.333 655.063 460.187 655.063 458.729C655.063 457.776 655.246 456.947 655.61 456.242C655.975 455.536 656.48 454.996 657.127 454.619C657.785 454.243 658.538 454.055 659.384 454.055C660.231 454.055 660.972 454.214 661.607 454.531C662.253 454.849 662.747 455.278 663.088 455.819C663.441 456.348 663.617 456.936 663.617 457.582C663.617 457.876 663.588 458.129 663.529 458.341L663.441 458.64C662.935 458.746 662.388 458.834 661.801 458.905C660.566 459.081 659.32 459.17 658.062 459.17C658.062 460.533 658.25 461.509 658.626 462.097C659.002 462.673 659.52 462.961 660.178 462.961C660.637 462.961 661.06 462.856 661.448 462.644C661.848 462.42 662.159 462.132 662.383 461.78C662.618 461.415 662.735 461.045 662.735 460.669H663.176C663.176 461.139 663.035 461.586 662.753 462.009C662.471 462.432 662.077 462.773 661.571 463.032C661.066 463.279 660.484 463.402 659.825 463.402ZM658.062 458.729C658.814 458.729 659.426 458.699 659.896 458.64C660.096 458.629 660.307 458.599 660.531 458.552C660.542 458.493 660.572 458.364 660.619 458.164C660.678 457.87 660.707 457.559 660.707 457.229C660.707 456.254 660.578 455.542 660.319 455.095C660.06 454.637 659.749 454.408 659.384 454.408C658.503 454.408 658.062 455.848 658.062 458.729ZM664.315 462.873L665.197 462.609L666.079 459.875C666.243 459.428 666.52 459.07 666.908 458.799C667.307 458.517 667.854 458.376 668.548 458.376H669.077C668.912 458.305 668.783 458.223 668.689 458.129C668.395 457.859 668.201 457.529 668.107 457.141L667.666 455.554C667.548 455.06 667.313 454.766 666.96 454.672V457.053L666.731 457.106C666.543 457.13 666.384 457.141 666.255 457.141C665.855 457.141 665.532 457.018 665.285 456.771C665.05 456.524 664.932 456.177 664.932 455.73C664.932 455.237 665.079 454.849 665.373 454.566C665.667 454.284 666.079 454.143 666.608 454.143C667.384 454.143 667.913 454.613 668.195 455.554L668.636 457.141C668.742 457.482 668.906 457.759 669.13 457.97C669.353 458.182 669.629 458.288 669.959 458.288H670.576V454.849L669.518 454.584V454.319H674.456V454.584L673.398 454.849V458.288H673.927C674.268 458.288 674.562 458.182 674.809 457.97C675.056 457.747 675.232 457.471 675.338 457.141L675.779 455.554C676.061 454.613 676.59 454.143 677.366 454.143C677.895 454.143 678.307 454.284 678.6 454.566C678.894 454.849 679.041 455.237 679.041 455.73C679.041 456.177 678.918 456.524 678.671 456.771C678.436 457.018 678.118 457.141 677.719 457.141C677.554 457.141 677.389 457.13 677.225 457.106L677.013 457.053V454.672C676.66 454.766 676.425 455.06 676.308 455.554L675.867 457.141C675.749 457.553 675.555 457.882 675.285 458.129C675.191 458.223 675.061 458.305 674.897 458.376H675.426C676.12 458.376 676.66 458.517 677.048 458.799C677.448 459.07 677.73 459.428 677.895 459.875L678.777 462.609L679.659 462.873V463.138H677.807C677.184 463.138 676.678 462.997 676.29 462.714C675.914 462.432 675.655 462.074 675.514 461.639L674.544 458.729H673.398V462.609L674.456 462.873V463.138H669.518V462.873L670.576 462.609V458.729H669.43L668.46 461.639C668.318 462.074 668.054 462.432 667.666 462.714C667.29 462.997 666.79 463.138 666.167 463.138H664.315V462.873ZM680.45 463.138V462.873L681.508 462.609V454.849L680.45 454.584V454.319H685.388V454.584L684.33 454.849V458.464H686.976V454.849L685.918 454.584V454.319H690.856V454.584L689.798 454.849V462.609L690.856 462.873V463.138H685.918V462.873L686.976 462.609V458.905H684.33V462.609L685.388 462.873V463.138H680.45ZM692.265 462.873L693.323 462.609V454.849L692.265 454.584V454.319H697.203V454.584L696.145 454.849V457.847H697.027C700.084 457.847 701.613 458.729 701.613 460.492C701.613 462.256 700.084 463.138 697.027 463.138H692.265V462.873ZM701.965 463.138V462.873L703.023 462.609V454.849L701.965 454.584V454.319H706.904V454.584L705.845 454.849V462.609L706.904 462.873V463.138H701.965ZM697.027 462.697C697.544 462.697 697.95 462.515 698.244 462.15C698.55 461.774 698.703 461.221 698.703 460.492C698.703 459.763 698.55 459.217 698.244 458.852C697.95 458.476 697.544 458.288 697.027 458.288H696.145V462.697H697.027ZM707.788 462.873L709.199 462.344L711.386 459.54L708.405 454.849L707.524 454.584V454.319H709.904C710.469 454.319 710.927 454.449 711.28 454.707C711.633 454.954 711.968 455.325 712.285 455.819L713.185 457.247L714.843 455.113L713.52 454.584V454.319H716.871V454.584L715.46 455.113L713.449 457.67L716.606 462.609L717.488 462.873V463.138H715.107C714.543 463.138 714.084 463.014 713.732 462.767C713.379 462.52 713.044 462.144 712.726 461.639L711.668 459.981L709.816 462.344L711.139 462.873V463.138H707.788V462.873Z" fill="white"/>
<path d="M484.613 373.967V400.268L488.583 401.757V402.501H479.155V401.757L483.125 400.268V369.253L479.651 368.508V367.764H486.35C488.071 367.764 489.427 368.128 490.419 368.856C491.445 369.551 492.322 370.593 493.049 371.982L503.868 392.675L512.155 371.982C512.717 370.527 513.478 369.468 514.437 368.806C515.397 368.111 516.869 367.764 518.854 367.764H524.065V368.508L521.087 369.253V401.012L524.065 401.757V402.501H509.922V401.757L512.899 401.012V373.967L501.237 402.997H499.749L484.613 373.967ZM538.225 403.245C535.28 403.245 533.014 402.617 531.426 401.36C529.838 400.102 529.044 398.498 529.044 396.546C529.044 395.256 529.326 393.982 529.888 392.725C530.12 392.13 530.417 391.584 530.781 391.087C532.138 390.757 533.61 390.459 535.198 390.194C538.771 389.599 541.93 389.235 544.676 389.102V387.614C544.676 383.942 544.229 381.411 543.336 380.021C542.443 378.632 541.07 377.937 539.217 377.937C538.523 377.937 537.927 378.02 537.431 378.185L536.736 378.433V385.877L536.091 386.026C535.562 386.092 535.115 386.125 534.751 386.125C533.626 386.125 532.717 385.794 532.022 385.133C531.36 384.438 531.029 383.528 531.029 382.403C531.029 380.881 531.79 379.591 533.312 378.533C534.867 377.474 537.166 376.945 540.21 376.945C542.79 376.945 545.007 377.408 546.859 378.334C548.745 379.227 550.168 380.484 551.127 382.105C552.12 383.693 552.616 385.53 552.616 387.614V401.012L555.593 401.757V402.501H551.127C549.142 402.501 547.604 401.889 546.512 400.665C546.049 400.169 545.685 399.54 545.42 398.779C544.957 399.606 544.411 400.351 543.783 401.012C542.294 402.501 540.441 403.245 538.225 403.245ZM540.21 401.508C541.434 401.508 542.542 400.847 543.535 399.524C543.899 399.027 544.279 398.366 544.676 397.539V390.343C543.154 390.343 541.699 390.426 540.309 390.591C539.283 390.724 538.589 390.806 538.225 390.839C538.059 391.203 537.894 391.699 537.729 392.328C537.398 393.585 537.232 394.826 537.232 396.05C537.232 397.902 537.514 399.275 538.076 400.169C538.638 401.062 539.35 401.508 540.21 401.508ZM571.992 403.245C567.758 403.245 564.466 402.087 562.117 399.772C559.768 397.423 558.594 394.197 558.594 390.095C558.594 385.993 559.768 382.784 562.117 380.468C564.466 378.119 567.758 376.945 571.992 376.945C575.036 376.945 577.319 377.474 578.841 378.533C580.395 379.591 581.173 380.881 581.173 382.403C581.173 383.528 580.826 384.438 580.131 385.133C579.469 385.794 578.576 386.125 577.451 386.125C576.988 386.125 576.525 386.092 576.062 386.026L575.466 385.877V378.433L574.771 378.185C574.275 378.02 573.68 377.937 572.985 377.937C571.099 377.937 569.627 378.83 568.568 380.617C567.543 382.403 567.03 385.563 567.03 390.095C567.03 394.495 567.543 397.588 568.568 399.375C569.627 401.128 571.099 402.005 572.985 402.005C574.275 402.005 575.466 401.707 576.558 401.112C577.683 400.483 578.559 399.672 579.188 398.68C579.85 397.654 580.18 396.612 580.18 395.554H581.421C581.421 396.877 581.024 398.134 580.23 399.325C579.436 400.516 578.328 401.475 576.905 402.203C575.483 402.898 573.845 403.245 571.992 403.245ZM584.908 401.757L587.886 401.012V379.178L584.908 378.433V377.689H598.803V378.433L595.826 379.178V388.854H597.562C598.522 388.854 599.349 388.557 600.044 387.961C600.738 387.333 601.235 386.555 601.532 385.629L602.773 381.163C603.567 378.516 605.056 377.193 607.239 377.193C608.728 377.193 609.886 377.59 610.713 378.384C611.54 379.178 611.953 380.269 611.953 381.659C611.953 382.916 611.606 383.892 610.911 384.587C610.25 385.281 609.356 385.629 608.232 385.629C607.768 385.629 607.305 385.596 606.842 385.53L606.247 385.381V378.681C605.254 378.946 604.593 379.773 604.262 381.163L603.021 385.629C602.69 386.787 602.144 387.713 601.383 388.408C601.119 388.672 600.755 388.904 600.292 389.102H601.78C603.732 389.102 605.254 389.499 606.346 390.293C607.471 391.054 608.265 392.063 608.728 393.321L611.209 401.012L613.69 401.757V402.501H608.48C606.726 402.501 605.304 402.104 604.212 401.31C603.153 400.516 602.426 399.507 602.029 398.283L599.299 390.095H595.826V401.012L598.803 401.757V402.501H584.908V401.757ZM625.6 403.245C622.656 403.245 620.389 402.617 618.802 401.36C617.214 400.102 616.42 398.498 616.42 396.546C616.42 395.256 616.701 393.982 617.263 392.725C617.495 392.13 617.793 391.584 618.156 391.087C619.513 390.757 620.985 390.459 622.573 390.194C626.146 389.599 629.305 389.235 632.051 389.102V387.614C632.051 383.942 631.605 381.411 630.711 380.021C629.818 378.632 628.445 377.937 626.593 377.937C625.898 377.937 625.302 378.02 624.806 378.185L624.111 378.433V385.877L623.466 386.026C622.937 386.092 622.49 386.125 622.126 386.125C621.002 386.125 620.092 385.794 619.397 385.133C618.735 384.438 618.405 383.528 618.405 382.403C618.405 380.881 619.165 379.591 620.687 378.533C622.242 377.474 624.541 376.945 627.585 376.945C630.165 376.945 632.382 377.408 634.235 378.334C636.12 379.227 637.543 380.484 638.502 382.105C639.495 383.693 639.991 385.53 639.991 387.614V401.012L642.968 401.757V402.501H638.502C636.517 402.501 634.979 401.889 633.887 400.665C633.424 400.169 633.06 399.54 632.796 398.779C632.332 399.606 631.786 400.351 631.158 401.012C629.669 402.501 627.817 403.245 625.6 403.245ZM627.585 401.508C628.809 401.508 629.917 400.847 630.91 399.524C631.274 399.027 631.654 398.366 632.051 397.539V390.343C630.529 390.343 629.074 390.426 627.684 390.591C626.659 390.724 625.964 390.806 625.6 390.839C625.435 391.203 625.269 391.699 625.104 392.328C624.773 393.585 624.608 394.826 624.608 396.05C624.608 397.902 624.889 399.275 625.451 400.169C626.014 401.062 626.725 401.508 627.585 401.508ZM657.396 401.26H661.366C661.896 400.896 662.474 400.318 663.103 399.524C664.261 398.068 664.923 396.248 665.088 394.065L666.08 379.426L662.607 378.433V377.689H686.178V378.433L683.201 379.178V401.26H687.667V410.689H686.178C685.318 410.127 684.607 409.448 684.044 408.654C682.655 406.868 681.96 404.817 681.96 402.501H663.103C663.103 404.784 662.392 406.835 660.969 408.654C660.407 409.448 659.712 410.127 658.885 410.689H657.396V401.26ZM675.261 401.26V378.93H667.569L666.577 394.065C666.411 396.149 665.783 397.969 664.691 399.524C664.195 400.218 663.665 400.797 663.103 401.26H675.261ZM692.641 403.245C691.152 403.245 689.994 402.848 689.167 402.054C688.34 401.26 687.927 400.169 687.927 398.779C687.927 397.687 688.291 396.761 689.018 396C689.779 395.206 690.656 394.809 691.648 394.809C691.913 394.809 692.178 394.842 692.442 394.908C692.707 394.942 692.889 394.958 692.988 394.958L693.633 395.057V401.757C694.427 401.393 695.122 400.665 695.718 399.573C696.313 398.481 696.694 396.645 696.859 394.065L697.852 379.426L694.378 378.433V377.689H717.453V378.433L714.476 379.178V401.012L717.453 401.757V402.501H703.558V401.757L706.536 401.012V378.93H699.34L698.348 394.065C698.149 397.208 697.521 399.524 696.462 401.012C695.403 402.501 694.13 403.245 692.641 403.245ZM719.686 401.757L722.167 401.012L724.152 395.057C724.682 393.469 726.088 392.312 728.37 391.584C729.297 391.319 730.372 391.154 731.596 391.087V390.839C730.074 390.806 728.585 390.542 727.13 390.045C724.152 388.987 722.664 387.184 722.664 384.636C722.664 382.585 723.673 380.915 725.691 379.624C727.742 378.334 731.033 377.689 735.566 377.689H748.716V378.433L745.739 379.178V401.012L748.716 401.757V402.501H734.821V401.757L737.799 401.012V391.584H733.829L731.596 398.531C731.232 399.623 730.521 400.566 729.462 401.36C728.436 402.121 727.163 402.501 725.641 402.501H719.686V401.757ZM737.799 390.343V378.93H735.566C734.143 378.93 733.002 379.426 732.142 380.418C731.282 381.378 730.852 382.784 730.852 384.636C730.852 386.489 731.282 387.911 732.142 388.904C733.002 389.863 734.143 390.343 735.566 390.343H737.799ZM479.651 458.757L482.628 458.012V436.178L479.651 435.433V434.689H492.305C495.183 434.689 497.549 434.987 499.401 435.582C501.287 436.178 502.643 436.955 503.471 437.915C504.298 438.841 504.711 439.833 504.711 440.892C504.711 442.215 504.281 443.29 503.421 444.118C502.594 444.945 501.535 445.54 500.245 445.904C498.855 446.334 497.367 446.566 495.779 446.599V446.847C497.731 446.88 499.468 447.128 500.989 447.591C502.511 448.087 503.752 448.749 504.711 449.576C505.704 450.37 506.2 451.445 506.2 452.802C506.2 454.754 505.174 456.358 503.123 457.615C501.105 458.872 497.83 459.501 493.298 459.501H479.651V458.757ZM492.305 446.102C493.463 446.102 494.455 445.623 495.283 444.663C496.11 443.704 496.523 442.447 496.523 440.892C496.523 439.436 496.11 438.245 495.283 437.319C494.455 436.393 493.463 435.93 492.305 435.93H490.568V446.102H492.305ZM493.298 458.26C494.72 458.26 495.862 457.781 496.722 456.821C497.582 455.862 498.012 454.522 498.012 452.802C498.012 451.081 497.582 449.742 496.722 448.782C495.862 447.823 494.72 447.343 493.298 447.343H490.568V458.26H493.298ZM522.847 460.245C518.745 460.245 515.519 459.087 513.17 456.772C510.855 454.423 509.697 451.197 509.697 447.095C509.697 442.993 510.855 439.784 513.17 437.468C515.519 435.119 518.745 433.945 522.847 433.945C526.949 433.945 530.158 435.119 532.474 437.468C534.823 439.784 535.998 442.993 535.998 447.095C535.998 451.197 534.823 454.423 532.474 456.772C530.158 459.087 526.949 460.245 522.847 460.245ZM522.847 459.253C524.17 459.253 525.279 458.327 526.172 456.474C527.098 454.621 527.561 451.495 527.561 447.095C527.561 442.695 527.098 439.569 526.172 437.716C525.279 435.863 524.17 434.937 522.847 434.937C521.524 434.937 520.399 435.863 519.473 437.716C518.58 439.569 518.133 442.695 518.133 447.095C518.133 451.495 518.58 454.621 519.473 456.474C520.399 458.327 521.524 459.253 522.847 459.253ZM542.218 460.245C540.729 460.245 539.571 459.848 538.744 459.054C537.917 458.26 537.504 457.169 537.504 455.779C537.504 454.687 537.868 453.761 538.595 453C539.356 452.206 540.233 451.809 541.226 451.809C541.49 451.809 541.755 451.842 542.02 451.908C542.284 451.942 542.466 451.958 542.565 451.958L543.21 452.057V458.757C544.004 458.393 544.699 457.665 545.295 456.573C545.89 455.481 546.271 453.645 546.436 451.065L547.429 436.426L543.955 435.433V434.689H567.03V435.433L564.053 436.178V458.012L567.03 458.757V459.501H553.135V458.757L556.113 458.012V435.93H548.917L547.925 451.065C547.726 454.208 547.098 456.524 546.039 458.012C544.98 459.501 543.707 460.245 542.218 460.245ZM584.15 460.245C580.048 460.245 576.823 459.087 574.474 456.772C572.158 454.423 571 451.197 571 447.095C571 442.993 572.158 439.784 574.474 437.468C576.823 435.119 580.048 433.945 584.15 433.945C588.253 433.945 591.462 435.119 593.777 437.468C596.126 439.784 597.301 442.993 597.301 447.095C597.301 451.197 596.126 454.423 593.777 456.772C591.462 459.087 588.253 460.245 584.15 460.245ZM584.15 459.253C585.474 459.253 586.582 458.327 587.475 456.474C588.401 454.621 588.865 451.495 588.865 447.095C588.865 442.695 588.401 439.569 587.475 437.716C586.582 435.863 585.474 434.937 584.15 434.937C582.827 434.937 581.702 435.863 580.776 437.716C579.883 439.569 579.436 442.695 579.436 447.095C579.436 451.495 579.883 454.621 580.776 456.474C581.702 458.327 582.827 459.253 584.15 459.253ZM614.687 460.245C610.452 460.245 607.16 459.087 604.811 456.772C602.463 454.423 601.288 451.197 601.288 447.095C601.288 442.993 602.463 439.784 604.811 437.468C607.16 435.119 610.452 433.945 614.687 433.945C617.73 433.945 620.013 434.474 621.535 435.533C623.09 436.591 623.867 437.881 623.867 439.403C623.867 440.528 623.52 441.438 622.825 442.133C622.163 442.794 621.27 443.125 620.145 443.125C619.682 443.125 619.219 443.092 618.756 443.026L618.16 442.877V435.433L617.466 435.185C616.969 435.02 616.374 434.937 615.679 434.937C613.793 434.937 612.321 435.83 611.263 437.617C610.237 439.403 609.724 442.563 609.724 447.095C609.724 451.495 610.237 454.588 611.263 456.375C612.321 458.128 613.793 459.005 615.679 459.005C616.969 459.005 618.16 458.707 619.252 458.112C620.377 457.483 621.254 456.672 621.882 455.68C622.544 454.654 622.875 453.612 622.875 452.554H624.115C624.115 453.877 623.718 455.134 622.924 456.325C622.13 457.516 621.022 458.475 619.599 459.203C618.177 459.898 616.539 460.245 614.687 460.245Z" fill="white"/>
<path d="M482.719 357.043C481.907 357.043 481.213 356.931 480.636 356.708C480.071 356.484 479.642 356.196 479.347 355.843C479.065 355.49 478.924 355.125 478.924 354.748C478.924 354.348 479.041 354.03 479.277 353.795C479.524 353.548 479.847 353.424 480.248 353.424C480.342 353.424 480.436 353.436 480.53 353.46C480.624 353.471 480.689 353.477 480.724 353.477L480.954 353.513V356.337C480.965 356.337 481.089 356.384 481.324 356.478C481.63 356.561 481.978 356.602 482.366 356.602C483.072 356.602 483.631 356.313 484.043 355.737C484.455 355.148 484.661 354.23 484.661 352.983C484.661 351.747 484.449 350.853 484.025 350.3C483.602 349.735 482.99 349.452 482.189 349.452C481.883 349.452 481.595 349.505 481.324 349.611C481.054 349.717 480.765 349.858 480.459 350.035C480.212 350.188 479.965 350.376 479.718 350.6L479.365 350.335L480.071 344.421H485.279C485.361 343.786 485.561 343.256 485.879 342.833C486.008 342.633 486.161 342.456 486.338 342.303H486.867V345.745H480.459L479.983 349.805C480.148 349.688 480.389 349.558 480.707 349.417C481.366 349.146 481.978 349.011 482.542 349.011C484.261 349.011 485.543 349.364 486.391 350.07C487.238 350.765 487.662 351.736 487.662 352.983C487.662 354.254 487.244 355.248 486.408 355.966C485.573 356.684 484.343 357.043 482.719 357.043ZM494.022 357.043C492.539 357.043 491.374 356.514 490.527 355.454C489.68 354.395 489.256 352.777 489.256 350.6C489.256 348.482 489.715 346.881 490.633 345.798C491.563 344.704 492.84 344.157 494.464 344.157C495.158 344.157 495.764 344.274 496.282 344.51C496.811 344.733 497.212 345.022 497.482 345.375C497.765 345.728 497.906 346.087 497.906 346.451C497.906 346.852 497.782 347.175 497.535 347.422C497.3 347.658 496.982 347.775 496.582 347.775C496.417 347.775 496.252 347.764 496.088 347.74L495.876 347.687V344.863L495.54 344.739C495.282 344.645 495.04 344.598 494.817 344.598C494.24 344.598 493.763 344.751 493.387 345.057C493.022 345.363 492.74 345.928 492.539 346.752C492.351 347.575 492.257 348.74 492.257 350.247C492.386 350.047 492.545 349.87 492.734 349.717C493.181 349.364 493.699 349.188 494.287 349.188C495.146 349.188 495.893 349.352 496.529 349.682C497.176 350 497.671 350.447 498.012 351.024C498.353 351.6 498.524 352.253 498.524 352.983C498.524 354.242 498.129 355.237 497.341 355.966C496.564 356.684 495.458 357.043 494.022 357.043ZM494.022 356.69C494.258 356.69 494.487 356.572 494.711 356.337C494.946 356.102 495.14 355.719 495.293 355.19C495.446 354.66 495.523 353.983 495.523 353.16C495.523 352.336 495.44 351.659 495.276 351.129C495.123 350.6 494.923 350.217 494.675 349.982C494.44 349.747 494.193 349.629 493.934 349.629C493.452 349.629 493.063 349.864 492.769 350.335C492.486 350.806 492.345 351.541 492.345 352.542C492.345 354.036 492.504 355.101 492.822 355.737C493.151 356.372 493.552 356.69 494.022 356.69ZM503.469 355.101V351.306H499.938V350.512H503.469V346.716H504.263V350.512H507.794V351.306H504.263V355.101H503.469Z" fill="white"/>
<path d="M315 467C473.115 519.088 728.047 541.898 918.343 467" stroke="white" stroke-width="2.33015"/>
<path d="M315 274C473.115 326.088 728.047 348.898 918.343 274" stroke="white" stroke-width="2.33015"/>
<g style="mix-blend-mode:darken" opacity="0.48" filter="url(#filter0_f_884_4)">
<ellipse cx="609.5" cy="634" rx="301.5" ry="22" fill="#121212"/>
</g>
<g clip-path="url(#clip0_884_4)">
<path d="M864.908 288.416L890.446 288.95L889.645 324.158L865.703 323.657L864.908 288.416Z" fill="#888888"/>
<path d="M916.559 325.059L920.155 324.263L921 287.124L917.444 286.179L917.464 285.308L934.447 285.664L934.428 286.534L930.832 287.33L930.456 303.869L933.436 303.931C936.415 303.993 938.443 302.197 939.52 298.543L941.777 291.042C942.295 289.273 943.102 287.877 944.198 286.855C945.334 285.834 946.657 285.339 948.167 285.37C949.915 285.407 951.333 285.94 952.423 286.969C953.513 287.959 954.041 289.209 954.007 290.718C953.974 292.188 953.489 293.378 952.555 294.287C951.621 295.158 950.478 295.579 949.127 295.551C948.571 295.539 948.016 295.489 947.462 295.4L946.75 295.211L946.935 287.086C946.256 287.227 945.611 287.659 944.998 288.381C944.386 289.065 943.909 289.965 943.565 291.08L941.308 298.58C940.664 300.695 939.834 302.226 938.819 303.173C938.371 303.628 937.866 304.004 937.302 304.302L938.792 304.333C943.639 304.435 946.581 306.141 947.619 309.453L952.632 324.943L955.592 325.876L955.572 326.746L948.421 326.597C946.316 326.553 944.696 326.093 943.564 325.218C942.431 324.343 941.604 323.106 941.084 321.508L935.786 305.432L930.423 305.319L929.987 324.469L933.543 325.415L933.523 326.285L916.539 325.93L916.559 325.059ZM957.411 337.526L961.007 336.73L961.852 299.591L958.296 298.645L958.316 297.775L963.679 297.887C966.023 297.936 967.853 298.71 969.171 300.208C969.674 300.799 970.095 301.524 970.433 302.383C970.972 301.388 971.648 300.531 972.459 299.813C974.286 298.109 976.531 297.285 979.193 297.341C981.537 297.39 983.609 298.033 985.409 299.271C987.21 300.47 988.62 302.241 989.64 304.584C990.661 306.889 991.134 309.686 991.059 312.975C990.946 317.926 989.668 321.712 987.223 324.332C984.82 326.913 981.612 328.162 977.599 328.078C975.692 328.038 974.032 327.616 972.62 326.813C972.03 326.53 971.423 326.13 970.799 325.614L970.541 336.929L974.097 337.875L974.077 338.745L957.391 338.396L957.411 337.526ZM975.255 326.287C976.963 326.323 978.296 325.383 979.254 323.468C980.251 321.554 980.81 317.985 980.928 312.763C981.042 307.772 980.684 304.3 979.854 302.348C979.064 300.357 978.034 299.349 976.763 299.322C975.253 299.29 973.885 300.036 972.658 301.558C972.126 302.205 971.672 302.97 971.294 303.852L970.838 323.873C971.382 324.426 971.81 324.822 972.123 325.061C973.178 325.857 974.222 326.266 975.255 326.287ZM1011.57 328.789C1006.48 328.683 1002.56 327.246 999.8 324.479C997.042 321.673 995.717 317.871 995.826 313.074C995.898 309.941 996.576 307.226 997.86 304.931C999.144 302.635 1000.89 300.891 1003.11 299.699C1005.36 298.508 1007.92 297.942 1010.78 298.002C1013.64 298.062 1016.13 298.636 1018.25 299.726C1020.41 300.816 1022.05 302.263 1023.16 304.067C1024.31 305.833 1024.86 307.779 1024.81 309.907C1024.79 310.874 1024.67 311.704 1024.46 312.396L1024.14 313.376C1022.42 313.689 1020.57 313.94 1018.58 314.131C1014.39 314.624 1010.17 314.826 1005.92 314.737C1005.82 319.225 1006.38 322.449 1007.61 324.41C1008.84 326.332 1010.57 327.317 1012.79 327.363C1014.34 327.396 1015.78 327.077 1017.11 326.408C1018.47 325.702 1019.55 324.776 1020.33 323.631C1021.15 322.448 1021.58 321.238 1021.6 320L1023.09 320.031C1023.06 321.579 1022.55 323.039 1021.56 324.412C1020.58 325.784 1019.22 326.878 1017.49 327.694C1015.77 328.47 1013.79 328.836 1011.57 328.789ZM1005.96 313.286C1008.5 313.339 1010.57 313.286 1012.16 313.126C1012.84 313.101 1013.55 313.02 1014.31 312.881C1014.36 312.688 1014.47 312.264 1014.64 311.61C1014.86 310.647 1014.98 309.624 1015.01 308.541C1015.08 305.33 1014.7 302.98 1013.86 301.492C1013.02 299.965 1011.98 299.188 1010.75 299.162C1007.77 299.1 1006.17 303.808 1005.96 313.286ZM920.283 371.04L919.841 390.48L924.568 392.32L924.548 393.191L913.226 392.954L913.246 392.083L918.053 390.442L918.614 365.779L914.462 364.822L914.482 363.951L922.527 364.12C924.474 364.16 926.034 364.599 927.207 365.437C928.38 366.274 929.367 367.437 930.168 368.924L937.955 383.079L944.768 369.23C945.558 367.698 946.538 366.557 947.708 365.808C948.878 365.058 950.515 364.705 952.621 364.749L958.58 364.874L958.56 365.745L954.965 366.54L954.384 392.073L957.94 393.019L957.92 393.889L941.234 393.54L941.254 392.67L944.849 391.874L945.311 371.563L934.308 393.976L932.878 393.946L920.283 371.04Z" fill="#888888"/>
<path d="M1125.51 7.22325L821.257 7.22325L821.257 36.1182L842.563 62.2106L1093.67 62.2106L1125.51 35.9912L1125.51 7.22325Z" fill="#2F2F2F" stroke="white" stroke-width="2.24255"/>
<rect x="-1.13584" y="1.10606" width="174.861" height="189.628" rx="22.4255" transform="matrix(-1.01299 -1.2632e-09 -1.33732e-09 0.98643 1064.99 460.722)" fill="#2F2F2F" stroke="white" stroke-width="2.24255"/>
<path d="M1084.72 578.967L1125.48 37.0377L821.827 37.0377L869.288 578.967L1084.72 578.967Z" fill="#5C5C5C" stroke="white" stroke-width="2.24255"/>
<path d="M1122.78 22.1768L824.516 22.1768" stroke="#7A7A7A" stroke-width="17.9404" stroke-dasharray="2.24 2.24"/>
<path d="M1105.92 292.512L841.004 261.252L848.632 344.391L1099.68 379.641L1105.92 292.512Z" fill="#2F2F2F"/>
<path d="M874.465 306.3L877.996 305.454V269.336L874.465 268.49V267.643H891.235V268.49L887.705 269.336V285.42H890.647C893.589 285.42 895.55 283.633 896.531 280.059L898.59 272.722C899.061 270.992 899.826 269.618 900.885 268.603C901.984 267.587 903.278 267.079 904.769 267.079C906.495 267.079 907.907 267.568 909.006 268.546C910.104 269.487 910.653 270.691 910.653 272.158C910.653 273.588 910.202 274.754 909.3 275.657C908.397 276.522 907.279 276.955 905.946 276.955C905.397 276.955 904.847 276.917 904.298 276.842L903.592 276.673V268.772C902.925 268.922 902.298 269.355 901.709 270.07C901.121 270.747 900.67 271.631 900.356 272.722L898.296 280.059C897.708 282.128 896.923 283.633 895.943 284.573C895.511 285.025 895.021 285.401 894.472 285.702H895.943C900.728 285.702 903.671 287.301 904.769 290.499L910.065 305.454L913.007 306.3V307.147H905.946C903.867 307.147 902.258 306.733 901.121 305.905C899.983 305.077 899.14 303.892 898.59 302.35L893 286.831H887.705V305.454L891.235 306.3V307.147H874.465V306.3Z" fill="white"/>
<path d="M915.064 317.587L918.594 316.74V280.623L915.064 279.776V278.93H920.36C922.674 278.93 924.498 279.645 925.832 281.074C926.342 281.639 926.774 282.335 927.127 283.162C927.637 282.184 928.284 281.338 929.068 280.623C930.834 278.93 933.03 278.083 935.659 278.083C937.973 278.083 940.033 278.667 941.837 279.833C943.642 280.962 945.073 282.655 946.133 284.912C947.192 287.132 947.721 289.84 947.721 293.038C947.721 297.854 946.545 301.56 944.191 304.156C941.876 306.714 938.738 307.993 934.776 307.993C932.893 307.993 931.246 307.617 929.833 306.865C929.245 306.601 928.637 306.225 928.009 305.736V316.74L931.54 317.587V318.433H915.064V317.587ZM932.422 306.3C934.109 306.3 935.404 305.36 936.306 303.479C937.247 301.597 937.718 298.117 937.718 293.038C937.718 288.185 937.287 284.818 936.424 282.937C935.6 281.018 934.56 280.059 933.305 280.059C931.814 280.059 930.481 280.811 929.304 282.316C928.794 282.956 928.362 283.708 928.009 284.573V304.043C928.558 304.57 928.99 304.946 929.304 305.172C930.363 305.924 931.402 306.3 932.422 306.3Z" fill="white"/>
<path d="M968.316 307.993C963.295 307.993 959.392 306.676 956.606 304.043C953.821 301.372 952.429 297.704 952.429 293.038C952.429 289.991 953.037 287.339 954.253 285.081C955.469 282.824 957.156 281.093 959.313 279.889C961.51 278.685 964.021 278.083 966.845 278.083C969.669 278.083 972.141 278.591 974.259 279.607C976.417 280.623 978.064 281.996 979.202 283.727C980.379 285.42 980.967 287.301 980.967 289.37C980.967 290.311 980.869 291.12 980.673 291.797L980.379 292.756C978.692 293.095 976.868 293.377 974.906 293.603C970.787 294.167 966.629 294.449 962.432 294.449C962.432 298.813 963.06 301.936 964.315 303.817C965.57 305.661 967.296 306.582 969.493 306.582C971.023 306.582 972.435 306.244 973.73 305.567C975.063 304.852 976.103 303.93 976.848 302.801C977.633 301.635 978.025 300.45 978.025 299.246H979.496C979.496 300.751 979.025 302.181 978.084 303.535C977.142 304.889 975.828 305.98 974.141 306.808C972.455 307.598 970.513 307.993 968.316 307.993ZM962.432 293.038C964.942 293.038 966.982 292.944 968.551 292.756C969.218 292.719 969.924 292.624 970.67 292.474C970.709 292.286 970.807 291.872 970.964 291.232C971.16 290.292 971.258 289.295 971.258 288.241C971.258 285.119 970.827 282.843 969.964 281.413C969.101 279.946 968.061 279.212 966.845 279.212C963.903 279.212 962.432 283.821 962.432 293.038Z" fill="white"/>
<path d="M990.651 285.702V304.607L995.358 306.3V307.147H984.178V306.3L988.886 304.607V280.623L984.767 279.776V278.93H992.71C994.632 278.93 996.182 279.325 997.359 280.115C998.536 280.905 999.536 282.015 1000.36 283.445L1008.36 297.045L1014.78 283.445C1015.52 281.94 1016.46 280.811 1017.6 280.059C1018.74 279.306 1020.35 278.93 1022.43 278.93H1028.31V279.776L1024.78 280.623V305.454L1028.31 306.3V307.147H1011.83V306.3L1015.36 305.454V285.702L1005.01 307.711H1003.6L990.651 285.702Z" fill="white"/>
<path d="M909.22 342.235H912.57C913.016 341.941 913.505 341.472 914.035 340.83C915.012 339.652 915.571 338.179 915.71 336.412L916.548 324.564L913.617 323.761V323.158H933.508V323.761L930.995 324.363V342.235H934.764V349.866H933.508C932.782 349.411 932.182 348.862 931.707 348.219C930.535 346.774 929.948 345.114 929.948 343.239H914.035C914.035 345.087 913.435 346.747 912.235 348.219C911.76 348.862 911.174 349.411 910.476 349.866H909.22V342.235ZM924.295 342.235V324.162H917.804L916.967 336.412C916.827 338.099 916.297 339.571 915.375 340.83C914.957 341.392 914.51 341.86 914.035 342.235H924.295Z" fill="white"/>
<path d="M938.961 343.842C937.705 343.842 936.728 343.52 936.03 342.878C935.332 342.235 934.983 341.352 934.983 340.227C934.983 339.344 935.29 338.594 935.905 337.978C936.547 337.336 937.286 337.014 938.124 337.014C938.347 337.014 938.571 337.041 938.794 337.095C939.017 337.121 939.171 337.135 939.255 337.135L939.799 337.215V342.637C940.469 342.342 941.055 341.753 941.558 340.87C942.06 339.986 942.381 338.5 942.521 336.412L943.358 324.564L940.427 323.761V323.158H959.9V323.761L957.387 324.363V342.034L959.9 342.637V343.239H948.174V342.637L950.687 342.034V324.162H944.615L943.777 336.412C943.61 338.955 943.079 340.83 942.186 342.034C941.293 343.239 940.218 343.842 938.961 343.842Z" fill="white"/>
<path d="M961.784 342.637L963.878 342.034L965.553 337.215C965.999 335.93 967.186 334.993 969.112 334.404C969.894 334.189 970.801 334.056 971.834 334.002V333.801C970.55 333.774 969.294 333.56 968.065 333.159C965.553 332.302 964.297 330.843 964.297 328.781C964.297 327.121 965.148 325.769 966.851 324.725C968.582 323.68 971.36 323.158 975.184 323.158H986.281V323.761L983.769 324.363V342.034L986.281 342.637V343.239H974.556V342.637L977.069 342.034V334.404H973.719L971.834 340.026C971.527 340.91 970.927 341.673 970.034 342.316C969.168 342.931 968.093 343.239 966.809 343.239H961.784V342.637ZM977.069 333.4V324.162H975.184C973.984 324.162 973.021 324.564 972.295 325.367C971.569 326.144 971.206 327.282 971.206 328.781C971.206 330.28 971.569 331.432 972.295 332.235C973.021 333.011 973.984 333.4 975.184 333.4H977.069Z" fill="white"/>
<path d="M1000.94 350.669L1003.46 350.067V324.363L1000.94 323.761V323.158H1004.71C1006.36 323.158 1007.66 323.667 1008.61 324.684C1008.97 325.086 1009.28 325.581 1009.53 326.17C1009.89 325.474 1010.35 324.872 1010.91 324.363C1012.17 323.158 1013.73 322.556 1015.6 322.556C1017.25 322.556 1018.71 322.971 1020 323.801C1021.28 324.604 1022.3 325.809 1023.06 327.415C1023.81 328.995 1024.19 330.923 1024.19 333.199C1024.19 336.626 1023.35 339.263 1021.67 341.111C1020.03 342.931 1017.79 343.842 1014.97 343.842C1013.63 343.842 1012.46 343.574 1011.46 343.038C1011.04 342.851 1010.6 342.583 1010.16 342.235V350.067L1012.67 350.669V351.272H1000.94V350.669ZM1013.3 342.637C1014.5 342.637 1015.42 341.968 1016.06 340.629C1016.73 339.29 1017.07 336.813 1017.07 333.199C1017.07 329.745 1016.76 327.349 1016.15 326.01C1015.56 324.644 1014.82 323.962 1013.93 323.962C1012.87 323.962 1011.92 324.497 1011.08 325.568C1010.72 326.023 1010.41 326.559 1010.16 327.175V341.03C1010.55 341.405 1010.86 341.673 1011.08 341.834C1011.83 342.369 1012.57 342.637 1013.3 342.637Z" fill="white"/>
<path d="M1032.14 351.874C1030.89 351.874 1029.91 351.553 1029.21 350.91C1028.51 350.268 1028.16 349.384 1028.16 348.26C1028.16 347.242 1028.44 346.452 1029 345.89C1029.59 345.328 1030.36 345.047 1031.3 345.047C1031.53 345.047 1031.75 345.06 1031.97 345.087C1032.2 345.14 1032.35 345.167 1032.44 345.167L1032.98 345.247V350.669C1033.79 350.535 1034.5 350.107 1035.12 349.384C1035.73 348.661 1036.41 347.416 1037.17 345.649L1038.01 343.641L1027.12 324.363L1025.02 323.761V323.158H1030.26C1031.71 323.158 1032.85 323.453 1033.69 324.042C1034.56 324.604 1035.3 325.448 1035.91 326.572L1041.15 335.85L1045.54 324.966L1042.4 323.761V323.158H1050.15V323.761L1046.8 324.966L1038.42 345.649C1037.53 347.845 1036.58 349.424 1035.58 350.388C1034.57 351.379 1033.43 351.874 1032.14 351.874Z" fill="white"/>
<path d="M1050.97 342.637L1053.48 342.034V324.363L1050.97 323.761V323.158H1062.69V323.761L1060.18 324.363V332.195H1061.65C1062.46 332.195 1063.15 331.954 1063.74 331.472C1064.33 330.963 1064.75 330.334 1065 329.584L1066.04 325.97C1066.71 323.828 1067.97 322.757 1069.81 322.757C1071.07 322.757 1072.05 323.078 1072.74 323.721C1073.44 324.363 1073.79 325.247 1073.79 326.371C1073.79 327.389 1073.5 328.179 1072.91 328.741C1072.35 329.303 1071.6 329.584 1070.65 329.584C1070.26 329.584 1069.87 329.557 1069.48 329.504L1068.98 329.383V323.962C1068.14 324.176 1067.58 324.845 1067.3 325.97L1066.25 329.584C1065.97 330.521 1065.51 331.271 1064.87 331.833C1064.65 332.048 1064.34 332.235 1063.95 332.396H1065.21C1066.85 332.396 1068.14 332.717 1069.06 333.359C1070.01 333.975 1070.68 334.792 1071.07 335.809L1073.16 342.034L1075.26 342.637V343.239H1070.86C1069.38 343.239 1068.18 342.918 1067.26 342.275C1066.37 341.633 1065.75 340.816 1065.42 339.826L1063.11 333.199H1060.18V342.034L1062.69 342.637V343.239H1050.97V342.637Z" fill="white"/>
<path d="M854.332 50.413V50.2603L854.969 50.1076V43.592L854.332 43.4393V43.2866H861.391V43.4393L860.754 43.592V50.1076L861.391 50.2603V50.413H858.366V50.2603L859.003 50.1076V43.5411H856.72V50.1076L857.357 50.2603V50.413H854.332Z" fill="white"/>
<path d="M862.343 50.413V50.2603L862.98 50.1076V45.6282L862.343 45.4755V45.3227H865.315V45.4755L864.678 45.6282V48.9878L866.376 46.1881V45.6282L865.74 45.4755V45.3227H868.712V45.4755L868.075 45.6282V50.1076L868.712 50.2603V50.413H865.74V50.2603L866.376 50.1076V46.748L864.678 49.5477V50.1076L865.315 50.2603V50.413H862.343Z" fill="white"/>
<path d="M870.566 50.2603L871.203 50.1076V45.5773H870.407C870.407 45.9505 870.29 46.3272 870.057 46.7073C869.965 46.8498 869.851 46.9822 869.717 47.1044H869.398V45.3227H874.706V47.1044H874.388C874.253 46.989 874.136 46.8566 874.037 46.7073C873.811 46.3408 873.698 45.9641 873.698 45.5773H872.901V50.1076L873.538 50.2603V50.413H870.566V50.2603Z" fill="white"/>
<path d="M877.257 50.5658C876.627 50.5658 876.142 50.4368 875.802 50.1789C875.463 49.921 875.293 49.5918 875.293 49.1914C875.293 48.9267 875.353 48.6654 875.473 48.4075C875.523 48.2853 875.586 48.1733 875.664 48.0715C875.954 48.0036 876.269 47.9426 876.609 47.8883C877.373 47.7661 878.049 47.6914 878.637 47.6643V47.3589C878.637 46.6055 878.541 46.0863 878.35 45.8012C878.159 45.5162 877.865 45.3736 877.469 45.3736C877.32 45.3736 877.193 45.3906 877.087 45.4245L876.938 45.4755V47.0025L876.8 47.0331C876.687 47.0467 876.591 47.0534 876.514 47.0534C876.273 47.0534 876.078 46.9856 875.93 46.8498C875.788 46.7073 875.717 46.5207 875.717 46.2899C875.717 45.9777 875.88 45.713 876.206 45.4958C876.538 45.2786 877.03 45.17 877.681 45.17C878.233 45.17 878.707 45.2651 879.104 45.4551C879.507 45.6383 879.811 45.8963 880.017 46.2288C880.229 46.5546 880.335 46.9313 880.335 47.3589V50.1076L880.972 50.2603V50.413H880.017C879.592 50.413 879.263 50.2875 879.029 50.0364C878.93 49.9346 878.852 49.8056 878.796 49.6495C878.697 49.8192 878.58 49.9719 878.445 50.1076C878.127 50.413 877.731 50.5658 877.257 50.5658ZM877.681 50.2094C877.943 50.2094 878.18 50.0737 878.392 49.8022C878.47 49.7004 878.552 49.5647 878.637 49.395V47.9188C878.311 47.9188 878 47.9358 877.702 47.9697C877.483 47.9969 877.334 48.0138 877.257 48.0206C877.221 48.0953 877.186 48.1971 877.15 48.326C877.08 48.5839 877.044 48.8384 877.044 49.0896C877.044 49.4696 877.104 49.7513 877.225 49.9346C877.345 50.1178 877.497 50.2094 877.681 50.2094Z" fill="white"/>
<path d="M884.48 50.5658C883.574 50.5658 882.87 50.3282 882.367 49.8531C881.865 49.3712 881.614 48.7095 881.614 47.8679C881.614 47.3181 881.723 46.8397 881.943 46.4324C882.162 46.0252 882.466 45.713 882.856 45.4958C883.252 45.2786 883.705 45.17 884.214 45.17C884.724 45.17 885.17 45.2617 885.552 45.4449C885.941 45.6282 886.238 45.8759 886.444 46.1881C886.656 46.4935 886.762 46.8329 886.762 47.2062C886.762 47.3758 886.744 47.5218 886.709 47.6439L886.656 47.817C886.352 47.8781 886.023 47.929 885.669 47.9697C884.926 48.0715 884.176 48.1224 883.418 48.1224C883.418 48.9097 883.532 49.473 883.758 49.8124C883.984 50.145 884.296 50.3112 884.692 50.3112C884.968 50.3112 885.223 50.2502 885.456 50.128C885.697 49.999 885.885 49.8328 886.019 49.6291C886.161 49.4187 886.231 49.2049 886.231 48.9878H886.497C886.497 49.2592 886.412 49.5172 886.242 49.7615C886.072 50.0058 885.835 50.2026 885.531 50.352C885.226 50.4945 884.876 50.5658 884.48 50.5658ZM883.418 47.8679C883.871 47.8679 884.239 47.8509 884.522 47.817C884.643 47.8102 884.77 47.7932 884.904 47.7661C884.912 47.7322 884.929 47.6575 884.958 47.5421C884.993 47.3724 885.011 47.1926 885.011 47.0025C885.011 46.4392 884.933 46.0286 884.777 45.7707C884.621 45.506 884.434 45.3736 884.214 45.3736C883.684 45.3736 883.418 46.2051 883.418 47.8679Z" fill="white"/>
<path d="M888.562 50.2603L889.199 50.1076V45.5773H888.403C888.403 45.9505 888.286 46.3272 888.053 46.7073C887.961 46.8498 887.847 46.9822 887.713 47.1044H887.394V45.3227H892.702V47.1044H892.384C892.249 46.989 892.132 46.8566 892.033 46.7073C891.807 46.3408 891.694 45.9641 891.694 45.5773H890.897V50.1076L891.534 50.2603V50.413H888.562V50.2603Z" fill="white"/>
<path d="M896.365 50.413V50.2603L897.002 50.1076V45.6282L896.365 45.4755V45.3227H899.337V45.4755L898.7 45.6282V48.9878L900.399 46.1881V45.6282L899.762 45.4755V45.3227H902.734V45.4755L902.097 45.6282V50.1076L902.734 50.2603V50.413H899.762V50.2603L900.399 50.1076V46.748L898.7 49.5477V50.1076L899.337 50.2603V50.413H896.365Z" fill="white"/>
<path d="M909.421 50.5658C908.515 50.5658 907.811 50.3282 907.309 49.8531C906.806 49.3712 906.555 48.7095 906.555 47.8679C906.555 47.0263 906.806 46.368 907.309 45.8929C907.811 45.411 908.515 45.17 909.421 45.17C910.072 45.17 910.561 45.2786 910.886 45.4958C911.219 45.713 911.385 45.9777 911.385 46.2899C911.385 46.5207 911.311 46.7073 911.162 46.8498C911.021 46.9856 910.83 47.0534 910.589 47.0534C910.49 47.0534 910.391 47.0467 910.292 47.0331L910.164 47.0025V45.4755L910.016 45.4245C909.91 45.3906 909.782 45.3736 909.634 45.3736C909.23 45.3736 908.915 45.5569 908.689 45.9234C908.469 46.2899 908.36 46.9381 908.36 47.8679C908.36 48.7706 908.469 49.4052 908.689 49.7717C908.915 50.1314 909.23 50.3112 909.634 50.3112C909.91 50.3112 910.164 50.2502 910.398 50.128C910.638 49.999 910.826 49.8328 910.96 49.6291C911.102 49.4187 911.173 49.2049 911.173 48.9878H911.438C911.438 49.2592 911.353 49.5172 911.183 49.7615C911.014 50.0058 910.776 50.2026 910.472 50.352C910.168 50.4945 909.818 50.5658 909.421 50.5658Z" fill="white"/>
<path d="M913.139 46.5444V49.9549L913.989 50.2603V50.413H911.972V50.2603L912.821 49.9549V45.6282L912.078 45.4755V45.3227H913.511C913.858 45.3227 914.137 45.394 914.35 45.5365C914.562 45.6791 914.742 45.8793 914.891 46.1372L916.335 48.5907L917.492 46.1372C917.626 45.8657 917.796 45.6621 918.001 45.5264C918.206 45.3906 918.497 45.3227 918.872 45.3227H919.933V45.4755L919.296 45.6282V50.1076L919.933 50.2603V50.413H916.961V50.2603L917.598 50.1076V46.5444L915.73 50.5149H915.475L913.139 46.5444Z" fill="white"/>
<path d="M920.406 50.2603L920.937 50.1076L921.362 48.886C921.475 48.5602 921.776 48.3226 922.264 48.1733C922.462 48.119 922.692 48.0851 922.954 48.0715V48.0206C922.628 48.0138 922.31 47.9595 921.999 47.8577C921.362 47.6405 921.043 47.2706 921.043 46.748C921.043 46.3272 921.259 45.9845 921.691 45.7198C922.129 45.4551 922.834 45.3227 923.803 45.3227H926.616V45.4755L925.979 45.6282V50.1076L926.616 50.2603V50.413H923.644V50.2603L924.281 50.1076V48.1733H923.432L922.954 49.5986C922.876 49.8226 922.724 50.016 922.497 50.1789C922.278 50.335 922.006 50.413 921.68 50.413H920.406V50.2603ZM924.281 47.9188V45.5773H923.803C923.499 45.5773 923.255 45.6791 923.071 45.8827C922.887 46.0795 922.795 46.368 922.795 46.748C922.795 47.1281 922.887 47.4199 923.071 47.6236C923.255 47.8204 923.499 47.9188 923.803 47.9188H924.281Z" fill="white"/>
<path d="M927.464 50.2603L928.101 50.1076V45.6282L927.464 45.4755V45.3227H932.4V47.1044H932.082C931.947 46.989 931.83 46.8566 931.731 46.7073C931.505 46.3408 931.392 45.9641 931.392 45.5773H929.799V50.1076L930.436 50.2603V50.413H927.464V50.2603Z" fill="white"/>
<path d="M936.012 50.2603L936.649 50.1076V48.326C936.508 48.4075 936.334 48.4719 936.129 48.5195C935.931 48.5602 935.733 48.5805 935.534 48.5805C934.841 48.5805 934.321 48.4482 933.974 48.1835C933.634 47.9188 933.465 47.5591 933.465 47.1044V45.6282L932.828 45.4755V45.3227H935.8V45.4755L935.163 45.6282V47.1044C935.163 47.5455 935.23 47.8611 935.365 48.0511C935.506 48.2344 935.704 48.326 935.959 48.326C936.242 48.326 936.472 48.2412 936.649 48.0715V45.6282L936.012 45.4755V45.3227H938.984V45.4755L938.347 45.6282V50.1076L938.984 50.2603V50.413H936.012V50.2603Z" fill="white"/>
<path d="M941.901 50.5658C941.271 50.5658 940.786 50.4368 940.447 50.1789C940.107 49.921 939.937 49.5918 939.937 49.1914C939.937 48.9267 939.997 48.6654 940.118 48.4075C940.167 48.2853 940.231 48.1733 940.309 48.0715C940.599 48.0036 940.914 47.9426 941.254 47.8883C942.018 47.7661 942.694 47.6914 943.281 47.6643V47.3589C943.281 46.6055 943.185 46.0863 942.994 45.8012C942.803 45.5162 942.51 45.3736 942.113 45.3736C941.965 45.3736 941.837 45.3906 941.731 45.4245L941.583 45.4755V47.0025L941.445 47.0331C941.331 47.0467 941.236 47.0534 941.158 47.0534C940.917 47.0534 940.723 46.9856 940.574 46.8498C940.433 46.7073 940.362 46.5207 940.362 46.2899C940.362 45.9777 940.525 45.713 940.85 45.4958C941.183 45.2786 941.675 45.17 942.326 45.17C942.878 45.17 943.352 45.2651 943.748 45.4551C944.151 45.6383 944.456 45.8963 944.661 46.2288C944.873 46.5546 944.979 46.9313 944.979 47.3589V50.1076L945.616 50.2603V50.413H944.661C944.236 50.413 943.907 50.2875 943.674 50.0364C943.575 49.9346 943.497 49.8056 943.44 49.6495C943.341 49.8192 943.224 49.9719 943.09 50.1076C942.772 50.413 942.375 50.5658 941.901 50.5658ZM942.326 50.2094C942.588 50.2094 942.825 50.0737 943.037 49.8022C943.115 49.7004 943.196 49.5647 943.281 49.395V47.9188C942.955 47.9188 942.644 47.9358 942.347 47.9697C942.128 47.9969 941.979 48.0138 941.901 48.0206C941.866 48.0953 941.83 48.1971 941.795 48.326C941.724 48.5839 941.689 48.8384 941.689 49.0896C941.689 49.4696 941.749 49.7513 941.869 49.9346C941.99 50.1178 942.142 50.2094 942.326 50.2094Z" fill="white"/>
<path d="M949.124 50.5658C948.219 50.5658 947.514 50.3282 947.012 49.8531C946.509 49.3712 946.258 48.7095 946.258 47.8679C946.258 47.3181 946.368 46.8397 946.587 46.4324C946.807 46.0252 947.111 45.713 947.5 45.4958C947.897 45.2786 948.349 45.17 948.859 45.17C949.368 45.17 949.814 45.2617 950.196 45.4449C950.586 45.6282 950.883 45.8759 951.088 46.1881C951.3 46.4935 951.407 46.8329 951.407 47.2062C951.407 47.3758 951.389 47.5218 951.354 47.6439L951.3 47.817C950.996 47.8781 950.667 47.929 950.313 47.9697C949.57 48.0715 948.82 48.1224 948.063 48.1224C948.063 48.9097 948.176 49.473 948.402 49.8124C948.629 50.145 948.94 50.3112 949.337 50.3112C949.613 50.3112 949.867 50.2502 950.101 50.128C950.342 49.999 950.529 49.8328 950.664 49.6291C950.805 49.4187 950.876 49.2049 950.876 48.9878H951.141C951.141 49.2592 951.056 49.5172 950.886 49.7615C950.717 50.0058 950.48 50.2026 950.175 50.352C949.871 50.4945 949.521 50.5658 949.124 50.5658ZM948.063 47.8679C948.516 47.8679 948.884 47.8509 949.167 47.817C949.287 47.8102 949.414 47.7932 949.549 47.7661C949.556 47.7322 949.574 47.6575 949.602 47.5421C949.637 47.3724 949.655 47.1926 949.655 47.0025C949.655 46.4392 949.577 46.0286 949.422 45.7707C949.266 45.506 949.078 45.3736 948.859 45.3736C948.328 45.3736 948.063 46.2051 948.063 47.8679Z" fill="white"/>
<path d="M953.207 50.2603L953.843 50.1076V45.5773H953.047C953.047 45.9505 952.931 46.3272 952.697 46.7073C952.605 46.8498 952.492 46.9822 952.357 47.1044H952.039V45.3227H957.346V47.1044H957.028C956.894 46.989 956.777 46.8566 956.678 46.7073C956.451 46.3408 956.338 45.9641 956.338 45.5773H955.542V50.1076L956.179 50.2603V50.413H953.207V50.2603Z" fill="white"/>
<path d="M961.01 50.2603L961.646 50.1076V45.6282L961.01 45.4755V45.3227H963.982V45.4755L963.345 45.6282V47.6134H963.716C963.922 47.6134 964.099 47.5523 964.247 47.4301C964.396 47.3012 964.502 47.1417 964.566 46.9516L964.831 46.0354C965.001 45.4924 965.319 45.2209 965.786 45.2209C966.105 45.2209 966.352 45.3024 966.529 45.4653C966.706 45.6282 966.795 45.8521 966.795 46.1372C966.795 46.3951 966.72 46.5953 966.572 46.7378C966.43 46.8804 966.239 46.9516 965.999 46.9516C965.9 46.9516 965.801 46.9449 965.701 46.9313L965.574 46.9007V45.5264C965.362 45.5807 965.22 45.7503 965.149 46.0354L964.884 46.9516C964.813 47.1892 964.697 47.3792 964.534 47.5218C964.477 47.5761 964.399 47.6236 964.3 47.6643H964.619C965.036 47.6643 965.362 47.7457 965.595 47.9086C965.836 48.0647 966.006 48.2717 966.105 48.5296L966.636 50.1076L967.166 50.2603V50.413H966.052C965.677 50.413 965.372 50.3316 965.139 50.1687C964.912 50.0058 964.757 49.7988 964.672 49.5477L964.088 47.8679H963.345V50.1076L963.982 50.2603V50.413H961.01V50.2603Z" fill="white"/>
<path d="M970.457 50.5658C969.579 50.5658 968.89 50.3282 968.387 49.8531C967.892 49.3712 967.644 48.7095 967.644 47.8679C967.644 47.0263 967.892 46.368 968.387 45.8929C968.89 45.411 969.579 45.17 970.457 45.17C971.335 45.17 972.021 45.411 972.516 45.8929C973.019 46.368 973.27 47.0263 973.27 47.8679C973.27 48.7095 973.019 49.3712 972.516 49.8531C972.021 50.3282 971.335 50.5658 970.457 50.5658ZM970.457 50.3621C970.74 50.3621 970.977 50.1721 971.168 49.792C971.366 49.412 971.465 48.7706 971.465 47.8679C971.465 46.9652 971.366 46.3238 971.168 45.9438C970.977 45.5637 970.74 45.3736 970.457 45.3736C970.174 45.3736 969.933 45.5637 969.735 45.9438C969.544 46.3238 969.449 46.9652 969.449 47.8679C969.449 48.7706 969.544 49.412 969.735 49.792C969.933 50.1721 970.174 50.3621 970.457 50.3621Z" fill="white"/>
<path d="M973.648 50.2603L974.179 50.1076L974.709 48.5296C974.808 48.2717 974.975 48.0647 975.208 47.9086C975.449 47.7457 975.778 47.6643 976.195 47.6643H976.514C976.415 47.6236 976.337 47.5761 976.28 47.5218C976.103 47.3657 975.987 47.1756 975.93 46.9516L975.665 46.0354C975.594 45.7503 975.452 45.5807 975.24 45.5264V46.9007L975.102 46.9313C974.989 46.9449 974.893 46.9516 974.815 46.9516C974.575 46.9516 974.38 46.8804 974.232 46.7378C974.09 46.5953 974.019 46.3951 974.019 46.1372C974.019 45.8521 974.108 45.6282 974.285 45.4653C974.462 45.3024 974.709 45.2209 975.028 45.2209C975.495 45.2209 975.813 45.4924 975.983 46.0354L976.248 46.9516C976.312 47.1485 976.411 47.308 976.546 47.4301C976.68 47.5523 976.846 47.6134 977.045 47.6134H977.416V45.6282L976.779 45.4755V45.3227H979.751V45.4755L979.115 45.6282V47.6134H979.433C979.638 47.6134 979.815 47.5523 979.964 47.4301C980.112 47.3012 980.219 47.1417 980.282 46.9516L980.548 46.0354C980.717 45.4924 981.036 45.2209 981.503 45.2209C981.821 45.2209 982.069 45.3024 982.246 45.4653C982.423 45.6282 982.511 45.8521 982.511 46.1372C982.511 46.3951 982.437 46.5953 982.288 46.7378C982.147 46.8804 981.956 46.9516 981.715 46.9516C981.616 46.9516 981.517 46.9449 981.418 46.9313L981.291 46.9007V45.5264C981.078 45.5807 980.937 45.7503 980.866 46.0354L980.601 46.9516C980.53 47.1892 980.413 47.3792 980.25 47.5218C980.194 47.5761 980.116 47.6236 980.017 47.6643H980.335C980.753 47.6643 981.078 47.7457 981.312 47.9086C981.552 48.0647 981.722 48.2717 981.821 48.5296L982.352 50.1076L982.883 50.2603V50.413H981.768C981.393 50.413 981.089 50.3316 980.855 50.1687C980.629 50.0058 980.473 49.7988 980.388 49.5477L979.805 47.8679H979.115V50.1076L979.751 50.2603V50.413H976.779V50.2603L977.416 50.1076V47.8679H976.726L976.142 49.5477C976.057 49.7988 975.898 50.0058 975.665 50.1687C975.438 50.3316 975.137 50.413 974.762 50.413H973.648V50.2603Z" fill="white"/>
<path d="M984.527 52.6019C984.209 52.6019 983.961 52.5204 983.784 52.3575C983.607 52.1947 983.519 51.9707 983.519 51.6856C983.519 51.4277 983.589 51.2275 983.731 51.085C983.88 50.9424 984.074 50.8712 984.315 50.8712C984.371 50.8712 984.428 50.8746 984.485 50.8814C984.541 50.8949 984.58 50.9017 984.601 50.9017L984.739 50.9221V52.2965C984.945 52.2625 985.125 52.1539 985.281 51.9707C985.436 51.7874 985.61 51.4718 985.801 51.0239L986.013 50.5149L983.253 45.6282L982.722 45.4755V45.3227H984.049C984.417 45.3227 984.708 45.3974 984.92 45.5467C985.139 45.6892 985.327 45.903 985.482 46.1881L986.809 48.5398L987.924 45.7809L987.128 45.4755V45.3227H989.092V45.4755L988.242 45.7809L986.119 51.0239C985.893 51.5804 985.652 51.9809 985.397 52.2252C985.143 52.4763 984.853 52.6019 984.527 52.6019Z" fill="white"/>
<path d="M989.618 51.482C989.766 51.4345 989.915 51.3565 990.064 51.2479C990.368 51.0307 990.555 50.7354 990.626 50.3621L990.488 50.4436C990.396 50.4911 990.283 50.5149 990.148 50.5149C989.936 50.5149 989.749 50.4402 989.586 50.2909C989.43 50.1348 989.352 49.9549 989.352 49.7513C989.352 49.5477 989.43 49.3712 989.586 49.2219C989.749 49.0658 989.936 48.9878 990.148 48.9878C990.396 48.9878 990.598 49.0726 990.754 49.2423C990.916 49.4052 990.998 49.6257 990.998 49.904C990.998 50.5284 990.785 51.0171 990.361 51.37C990.177 51.5329 989.965 51.6551 989.724 51.7365L989.618 51.482Z" fill="white"/>
<path d="M991.901 50.2603L992.538 50.1076V45.6282L991.901 45.4755V45.3227H994.608C995.224 45.3227 995.73 45.3838 996.126 45.506C996.529 45.6282 996.82 45.7877 996.996 45.9845C997.173 46.1745 997.262 46.3781 997.262 46.5953C997.262 46.8668 997.17 47.0874 996.986 47.2571C996.809 47.4267 996.583 47.5489 996.307 47.6236C996.009 47.7118 995.691 47.7593 995.351 47.7661V47.817C995.769 47.8238 996.14 47.8747 996.466 47.9697C996.791 48.0715 997.057 48.2073 997.262 48.3769C997.474 48.5398 997.58 48.7604 997.58 49.0387C997.58 49.4391 997.361 49.7683 996.922 50.0262C996.491 50.2841 995.79 50.413 994.82 50.413H991.901V50.2603ZM994.608 47.6643C994.856 47.6643 995.068 47.5659 995.245 47.369C995.422 47.1722 995.51 46.9143 995.51 46.5953C995.51 46.2967 995.422 46.0524 995.245 45.8623C995.068 45.6723 994.856 45.5773 994.608 45.5773H994.237V47.6643H994.608ZM994.82 50.1585C995.125 50.1585 995.369 50.0601 995.553 49.8633C995.737 49.6665 995.829 49.3916 995.829 49.0387C995.829 48.6857 995.737 48.4109 995.553 48.214C995.369 48.0172 995.125 47.9188 994.82 47.9188H994.237V50.1585H994.82Z" fill="white"/>
<path d="M1001.14 50.5658C1000.26 50.5658 999.574 50.3282 999.071 49.8531C998.576 49.3712 998.328 48.7095 998.328 47.8679C998.328 47.0263 998.576 46.368 999.071 45.8929C999.574 45.411 1000.26 45.17 1001.14 45.17C1002.02 45.17 1002.71 45.411 1003.2 45.8929C1003.7 46.368 1003.95 47.0263 1003.95 47.8679C1003.95 48.7095 1003.7 49.3712 1003.2 49.8531C1002.71 50.3282 1002.02 50.5658 1001.14 50.5658ZM1001.14 50.3621C1001.42 50.3621 1001.66 50.1721 1001.85 49.792C1002.05 49.412 1002.15 48.7706 1002.15 47.8679C1002.15 46.9652 1002.05 46.3238 1001.85 45.9438C1001.66 45.5637 1001.42 45.3736 1001.14 45.3736C1000.86 45.3736 1000.62 45.5637 1000.42 45.9438C1000.23 46.3238 1000.13 46.9652 1000.13 47.8679C1000.13 48.7706 1000.23 49.412 1000.42 49.792C1000.62 50.1721 1000.86 50.3621 1001.14 50.3621Z" fill="white"/>
<path d="M1007.67 50.5658C1006.77 50.5658 1006.06 50.3282 1005.56 49.8531C1005.06 49.3712 1004.81 48.7095 1004.81 47.8679C1004.81 47.0263 1005.06 46.368 1005.56 45.8929C1006.06 45.411 1006.77 45.17 1007.67 45.17C1008.32 45.17 1008.81 45.2786 1009.14 45.4958C1009.47 45.713 1009.64 45.9777 1009.64 46.2899C1009.64 46.5207 1009.56 46.7073 1009.41 46.8498C1009.27 46.9856 1009.08 47.0534 1008.84 47.0534C1008.74 47.0534 1008.64 47.0467 1008.54 47.0331L1008.42 47.0025V45.4755L1008.27 45.4245C1008.16 45.3906 1008.03 45.3736 1007.89 45.3736C1007.48 45.3736 1007.17 45.5569 1006.94 45.9234C1006.72 46.2899 1006.61 46.9381 1006.61 47.8679C1006.61 48.7706 1006.72 49.4052 1006.94 49.7717C1007.17 50.1314 1007.48 50.3112 1007.89 50.3112C1008.16 50.3112 1008.42 50.2502 1008.65 50.128C1008.89 49.999 1009.08 49.8328 1009.21 49.6291C1009.35 49.4187 1009.42 49.2049 1009.42 48.9878H1009.69C1009.69 49.2592 1009.61 49.5172 1009.44 49.7615C1009.27 50.0058 1009.03 50.2026 1008.72 50.352C1008.42 50.4945 1008.07 50.5658 1007.67 50.5658Z" fill="white"/>
<path d="M1013.3 50.5658C1012.4 50.5658 1011.69 50.3282 1011.19 49.8531C1010.69 49.3712 1010.44 48.7095 1010.44 47.8679C1010.44 47.0263 1010.69 46.368 1011.19 45.8929C1011.69 45.411 1012.4 45.17 1013.3 45.17C1013.95 45.17 1014.44 45.2786 1014.77 45.4958C1015.1 45.713 1015.27 45.9777 1015.27 46.2899C1015.27 46.5207 1015.19 46.7073 1015.04 46.8498C1014.9 46.9856 1014.71 47.0534 1014.47 47.0534C1014.37 47.0534 1014.27 47.0467 1014.17 47.0331L1014.05 47.0025V45.4755L1013.9 45.4245C1013.79 45.3906 1013.66 45.3736 1013.51 45.3736C1013.11 45.3736 1012.8 45.5569 1012.57 45.9234C1012.35 46.2899 1012.24 46.9381 1012.24 47.8679C1012.24 48.7706 1012.35 49.4052 1012.57 49.7717C1012.8 50.1314 1013.11 50.3112 1013.51 50.3112C1013.79 50.3112 1014.05 50.2502 1014.28 50.128C1014.52 49.999 1014.71 49.8328 1014.84 49.6291C1014.98 49.4187 1015.05 49.2049 1015.05 48.9878H1015.32C1015.32 49.2592 1015.23 49.5172 1015.06 49.7615C1014.89 50.0058 1014.66 50.2026 1014.35 50.352C1014.05 50.4945 1013.7 50.5658 1013.3 50.5658Z" fill="white"/>
<path d="M1017.07 50.2603L1017.71 50.1076V45.5773H1016.91C1016.91 45.9505 1016.8 46.3272 1016.56 46.7073C1016.47 46.8498 1016.36 46.9822 1016.22 47.1044H1015.91V45.3227H1021.21V47.1044H1020.9C1020.76 46.989 1020.64 46.8566 1020.54 46.7073C1020.32 46.3408 1020.21 45.9641 1020.21 45.5773H1019.41V50.1076L1020.05 50.2603V50.413H1017.07V50.2603Z" fill="white"/>
<path d="M1023.76 50.5658C1023.13 50.5658 1022.65 50.4368 1022.31 50.1789C1021.97 49.921 1021.8 49.5918 1021.8 49.1914C1021.8 48.9267 1021.86 48.6654 1021.98 48.4075C1022.03 48.2853 1022.09 48.1733 1022.17 48.0715C1022.46 48.0036 1022.78 47.9426 1023.12 47.8883C1023.88 47.7661 1024.56 47.6914 1025.14 47.6643V47.3589C1025.14 46.6055 1025.05 46.0863 1024.86 45.8012C1024.67 45.5162 1024.37 45.3736 1023.98 45.3736C1023.83 45.3736 1023.7 45.3906 1023.59 45.4245L1023.45 45.4755V47.0025L1023.31 47.0331C1023.19 47.0467 1023.1 47.0534 1023.02 47.0534C1022.78 47.0534 1022.59 46.9856 1022.44 46.8498C1022.3 46.7073 1022.22 46.5207 1022.22 46.2899C1022.22 45.9777 1022.39 45.713 1022.71 45.4958C1023.05 45.2786 1023.54 45.17 1024.19 45.17C1024.74 45.17 1025.21 45.2651 1025.61 45.4551C1026.01 45.6383 1026.32 45.8963 1026.52 46.2288C1026.74 46.5546 1026.84 46.9313 1026.84 47.3589V50.1076L1027.48 50.2603V50.413H1026.52C1026.1 50.413 1025.77 50.2875 1025.54 50.0364C1025.44 49.9346 1025.36 49.8056 1025.3 49.6495C1025.2 49.8192 1025.09 49.9719 1024.95 50.1076C1024.63 50.413 1024.24 50.5658 1023.76 50.5658ZM1024.19 50.2094C1024.45 50.2094 1024.69 50.0737 1024.9 49.8022C1024.98 49.7004 1025.06 49.5647 1025.14 49.395V47.9188C1024.82 47.9188 1024.51 47.9358 1024.21 47.9697C1023.99 47.9969 1023.84 48.0138 1023.76 48.0206C1023.73 48.0953 1023.69 48.1971 1023.66 48.326C1023.59 48.5839 1023.55 48.8384 1023.55 49.0896C1023.55 49.4696 1023.61 49.7513 1023.73 49.9346C1023.85 50.1178 1024 50.2094 1024.19 50.2094Z" fill="white"/>
<path d="M1028.12 50.413V50.2603L1028.76 50.1076V45.6282L1028.12 45.4755V45.3227H1031.09V45.4755L1030.46 45.6282V47.7152H1032.05V45.6282L1031.41 45.4755V45.3227H1034.38V45.4755L1033.75 45.6282V50.1076L1034.38 50.2603V50.413H1031.41V50.2603L1032.05 50.1076V47.9697H1030.46V50.1076L1031.09 50.2603V50.413H1028.12Z" fill="white"/>
<path d="M1037.3 50.5658C1036.67 50.5658 1036.19 50.4368 1035.85 50.1789C1035.51 49.921 1035.34 49.5918 1035.34 49.1914C1035.34 48.9267 1035.4 48.6654 1035.52 48.4075C1035.57 48.2853 1035.63 48.1733 1035.71 48.0715C1036 48.0036 1036.32 47.9426 1036.65 47.8883C1037.42 47.7661 1038.1 47.6914 1038.68 47.6643V47.3589C1038.68 46.6055 1038.59 46.0863 1038.4 45.8012C1038.2 45.5162 1037.91 45.3736 1037.51 45.3736C1037.37 45.3736 1037.24 45.3906 1037.13 45.4245L1036.98 45.4755V47.0025L1036.85 47.0331C1036.73 47.0467 1036.64 47.0534 1036.56 47.0534C1036.32 47.0534 1036.12 46.9856 1035.98 46.8498C1035.83 46.7073 1035.76 46.5207 1035.76 46.2899C1035.76 45.9777 1035.93 45.713 1036.25 45.4958C1036.58 45.2786 1037.08 45.17 1037.73 45.17C1038.28 45.17 1038.75 45.2651 1039.15 45.4551C1039.55 45.6383 1039.86 45.8963 1040.06 46.2288C1040.27 46.5546 1040.38 46.9313 1040.38 47.3589V50.1076L1041.02 50.2603V50.413H1040.06C1039.64 50.413 1039.31 50.2875 1039.08 50.0364C1038.98 49.9346 1038.9 49.8056 1038.84 49.6495C1038.74 49.8192 1038.63 49.9719 1038.49 50.1076C1038.17 50.413 1037.78 50.5658 1037.3 50.5658ZM1037.73 50.2094C1037.99 50.2094 1038.23 50.0737 1038.44 49.8022C1038.52 49.7004 1038.6 49.5647 1038.68 49.395V47.9188C1038.36 47.9188 1038.05 47.9358 1037.75 47.9697C1037.53 47.9969 1037.38 48.0138 1037.3 48.0206C1037.27 48.0953 1037.23 48.1971 1037.2 48.326C1037.13 48.5839 1037.09 48.8384 1037.09 49.0896C1037.09 49.4696 1037.15 49.7513 1037.27 49.9346C1037.39 50.1178 1037.54 50.2094 1037.73 50.2094Z" fill="white"/>
<path d="M1041.66 50.2603L1042.3 50.1076V45.6282L1041.66 45.4755V45.3227H1044.37C1044.98 45.3227 1045.49 45.3838 1045.88 45.506C1046.29 45.6282 1046.58 45.7877 1046.75 45.9845C1046.93 46.1745 1047.02 46.3781 1047.02 46.5953C1047.02 46.8668 1046.93 47.0874 1046.74 47.2571C1046.57 47.4267 1046.34 47.5489 1046.06 47.6236C1045.77 47.7118 1045.45 47.7593 1045.11 47.7661V47.817C1045.53 47.8238 1045.9 47.8747 1046.22 47.9697C1046.55 48.0715 1046.82 48.2073 1047.02 48.3769C1047.23 48.5398 1047.34 48.7604 1047.34 49.0387C1047.34 49.4391 1047.12 49.7683 1046.68 50.0262C1046.25 50.2841 1045.55 50.413 1044.58 50.413H1041.66V50.2603ZM1044.37 47.6643C1044.61 47.6643 1044.83 47.5659 1045 47.369C1045.18 47.1722 1045.27 46.9143 1045.27 46.5953C1045.27 46.2967 1045.18 46.0524 1045 45.8623C1044.83 45.6723 1044.61 45.5773 1044.37 45.5773H1043.99V47.6643H1044.37ZM1044.58 50.1585C1044.88 50.1585 1045.13 50.0601 1045.31 49.8633C1045.5 49.6665 1045.59 49.3916 1045.59 49.0387C1045.59 48.6857 1045.5 48.4109 1045.31 48.214C1045.13 48.0172 1044.88 47.9188 1044.58 47.9188H1043.99V50.1585H1044.58Z" fill="white"/>
<path d="M1048.56 50.5658C1048.25 50.5658 1048 50.4843 1047.82 50.3214C1047.64 50.1585 1047.56 49.9346 1047.56 49.6495C1047.56 49.4255 1047.63 49.2355 1047.79 49.0794C1047.95 48.9165 1048.14 48.8351 1048.35 48.8351C1048.41 48.8351 1048.47 48.8418 1048.52 48.8554C1048.58 48.8622 1048.62 48.8656 1048.64 48.8656L1048.78 48.886V50.2603C1048.95 50.1857 1049.1 50.0364 1049.22 49.8124C1049.35 49.5884 1049.43 49.2117 1049.47 48.6823L1049.68 45.6791L1048.94 45.4755V45.3227H1053.87V45.4755L1053.24 45.6282V50.1076L1053.87 50.2603V50.413H1050.9V50.2603L1051.54 50.1076V45.5773H1050L1049.79 48.6823C1049.74 49.3271 1049.61 49.8022 1049.38 50.1076C1049.16 50.413 1048.88 50.5658 1048.56 50.5658Z" fill="white"/>
<path d="M1054.72 50.413V50.2603L1055.36 50.1076V45.6282L1054.72 45.4755V45.3227H1057.69V45.4755L1057.06 45.6282V48.9878L1058.75 46.1881V45.6282L1058.12 45.4755V45.3227H1061.09V45.4755L1060.45 45.6282V50.1076L1061.09 50.2603V50.413H1058.12V50.2603L1058.75 50.1076V46.748L1057.06 49.5477V50.1076L1057.69 50.2603V50.413H1054.72Z" fill="white"/>
<path d="M1061.94 50.2603L1062.57 50.1076V45.6282L1061.94 45.4755V45.3227H1064.64C1065.26 45.3227 1065.76 45.3838 1066.16 45.506C1066.56 45.6282 1066.85 45.7877 1067.03 45.9845C1067.21 46.1745 1067.3 46.3781 1067.3 46.5953C1067.3 46.8668 1067.2 47.0874 1067.02 47.2571C1066.84 47.4267 1066.62 47.5489 1066.34 47.6236C1066.04 47.7118 1065.73 47.7593 1065.39 47.7661V47.817C1065.8 47.8238 1066.18 47.8747 1066.5 47.9697C1066.83 48.0715 1067.09 48.2073 1067.3 48.3769C1067.51 48.5398 1067.62 48.7604 1067.62 49.0387C1067.62 49.4391 1067.4 49.7683 1066.96 50.0262C1066.53 50.2841 1065.82 50.413 1064.86 50.413H1061.94V50.2603ZM1064.64 47.6643C1064.89 47.6643 1065.1 47.5659 1065.28 47.369C1065.46 47.1722 1065.55 46.9143 1065.55 46.5953C1065.55 46.2967 1065.46 46.0524 1065.28 45.8623C1065.1 45.6723 1064.89 45.5773 1064.64 45.5773H1064.27V47.6643H1064.64ZM1064.86 50.1585C1065.16 50.1585 1065.4 50.0601 1065.59 49.8633C1065.77 49.6665 1065.86 49.3916 1065.86 49.0387C1065.86 48.6857 1065.77 48.4109 1065.59 48.214C1065.4 48.0172 1065.16 47.9188 1064.86 47.9188H1064.27V50.1585H1064.86Z" fill="white"/>
<path d="M1070.43 50.5658C1069.8 50.5658 1069.32 50.4368 1068.98 50.1789C1068.64 49.921 1068.47 49.5918 1068.47 49.1914C1068.47 48.9267 1068.53 48.6654 1068.65 48.4075C1068.7 48.2853 1068.76 48.1733 1068.84 48.0715C1069.13 48.0036 1069.45 47.9426 1069.79 47.8883C1070.55 47.7661 1071.23 47.6914 1071.81 47.6643V47.3589C1071.81 46.6055 1071.72 46.0863 1071.53 45.8012C1071.34 45.5162 1071.04 45.3736 1070.65 45.3736C1070.5 45.3736 1070.37 45.3906 1070.26 45.4245L1070.11 45.4755V47.0025L1069.98 47.0331C1069.86 47.0467 1069.77 47.0534 1069.69 47.0534C1069.45 47.0534 1069.26 46.9856 1069.11 46.8498C1068.96 46.7073 1068.89 46.5207 1068.89 46.2899C1068.89 45.9777 1069.06 45.713 1069.38 45.4958C1069.72 45.2786 1070.21 45.17 1070.86 45.17C1071.41 45.17 1071.88 45.2651 1072.28 45.4551C1072.68 45.6383 1072.99 45.8963 1073.19 46.2288C1073.41 46.5546 1073.51 46.9313 1073.51 47.3589V50.1076L1074.15 50.2603V50.413H1073.19C1072.77 50.413 1072.44 50.2875 1072.21 50.0364C1072.11 49.9346 1072.03 49.8056 1071.97 49.6495C1071.87 49.8192 1071.76 49.9719 1071.62 50.1076C1071.3 50.413 1070.91 50.5658 1070.43 50.5658ZM1070.86 50.2094C1071.12 50.2094 1071.36 50.0737 1071.57 49.8022C1071.65 49.7004 1071.73 49.5647 1071.81 49.395V47.9188C1071.49 47.9188 1071.18 47.9358 1070.88 47.9697C1070.66 47.9969 1070.51 48.0138 1070.43 48.0206C1070.4 48.0953 1070.36 48.1971 1070.33 48.326C1070.26 48.5839 1070.22 48.8384 1070.22 49.0896C1070.22 49.4696 1070.28 49.7513 1070.4 49.9346C1070.52 50.1178 1070.67 50.2094 1070.86 50.2094Z" fill="white"/>
<path d="M1074.42 50.2603L1074.95 50.1076L1075.37 48.886C1075.49 48.5602 1075.79 48.3226 1076.28 48.1733C1076.47 48.119 1076.7 48.0851 1076.97 48.0715V48.0206C1076.64 48.0138 1076.32 47.9595 1076.01 47.8577C1075.37 47.6405 1075.06 47.2706 1075.06 46.748C1075.06 46.3272 1075.27 45.9845 1075.7 45.7198C1076.14 45.4551 1076.85 45.3227 1077.82 45.3227H1080.63V45.4755L1079.99 45.6282V50.1076L1080.63 50.2603V50.413H1077.66V50.2603L1078.29 50.1076V48.1733H1077.44L1076.97 49.5986C1076.89 49.8226 1076.74 50.016 1076.51 50.1789C1076.29 50.335 1076.02 50.413 1075.69 50.413H1074.42V50.2603ZM1078.29 47.9188V45.5773H1077.82C1077.51 45.5773 1077.27 45.6791 1077.08 45.8827C1076.9 46.0795 1076.81 46.368 1076.81 46.748C1076.81 47.1281 1076.9 47.4199 1077.08 47.6236C1077.27 47.8204 1077.51 47.9188 1077.82 47.9188H1078.29Z" fill="white"/>
<path d="M1087.32 50.5658C1086.41 50.5658 1085.71 50.3282 1085.21 49.8531C1084.7 49.3712 1084.45 48.7095 1084.45 47.8679C1084.45 47.3181 1084.56 46.8397 1084.78 46.4324C1085 46.0252 1085.3 45.713 1085.69 45.4958C1086.09 45.2786 1086.54 45.17 1087.05 45.17C1087.56 45.17 1088.01 45.2617 1088.39 45.4449C1088.78 45.6282 1089.08 45.8759 1089.28 46.1881C1089.49 46.4935 1089.6 46.8329 1089.6 47.2062C1089.6 47.3758 1089.58 47.5218 1089.55 47.6439L1089.49 47.817C1089.19 47.8781 1088.86 47.929 1088.51 47.9697C1087.76 48.0715 1087.01 48.1224 1086.26 48.1224C1086.26 48.9097 1086.37 49.473 1086.6 49.8124C1086.82 50.145 1087.13 50.3112 1087.53 50.3112C1087.81 50.3112 1088.06 50.2502 1088.29 50.128C1088.54 49.999 1088.72 49.8328 1088.86 49.6291C1089 49.4187 1089.07 49.2049 1089.07 48.9878H1089.33C1089.33 49.2592 1089.25 49.5172 1089.08 49.7615C1088.91 50.0058 1088.67 50.2026 1088.37 50.352C1088.06 50.4945 1087.71 50.5658 1087.32 50.5658ZM1086.26 47.8679C1086.71 47.8679 1087.08 47.8509 1087.36 47.817C1087.48 47.8102 1087.61 47.7932 1087.74 47.7661C1087.75 47.7322 1087.77 47.6575 1087.8 47.5421C1087.83 47.3724 1087.85 47.1926 1087.85 47.0025C1087.85 46.4392 1087.77 46.0286 1087.62 45.7707C1087.46 45.506 1087.27 45.3736 1087.05 45.3736C1086.52 45.3736 1086.26 46.2051 1086.26 47.8679Z" fill="white"/>
<path d="M1091.98 44.5083C1091.77 44.5083 1091.59 44.4404 1091.45 44.3047C1091.31 44.1689 1091.24 43.9993 1091.24 43.7957C1091.24 43.592 1091.31 43.4224 1091.45 43.2866C1091.59 43.1509 1091.77 43.083 1091.98 43.083C1092.2 43.083 1092.37 43.1509 1092.51 43.2866C1092.66 43.4224 1092.73 43.592 1092.73 43.7957C1092.73 43.9993 1092.66 44.1689 1092.51 44.3047C1092.37 44.4404 1092.2 44.5083 1091.98 44.5083ZM1093.95 44.5083C1093.74 44.5083 1093.56 44.4404 1093.42 44.3047C1093.28 44.1689 1093.2 43.9993 1093.2 43.7957C1093.2 43.592 1093.28 43.4224 1093.42 43.2866C1093.56 43.1509 1093.74 43.083 1093.95 43.083C1094.16 43.083 1094.34 43.1509 1094.48 43.2866C1094.62 43.4224 1094.69 43.592 1094.69 43.7957C1094.69 43.9993 1094.62 44.1689 1094.48 44.3047C1094.34 44.4404 1094.16 44.5083 1093.95 44.5083ZM1093.26 50.5658C1092.35 50.5658 1091.65 50.3282 1091.15 49.8531C1090.64 49.3712 1090.39 48.7095 1090.39 47.8679C1090.39 47.3181 1090.5 46.8397 1090.72 46.4324C1090.94 46.0252 1091.24 45.713 1091.63 45.4958C1092.03 45.2786 1092.48 45.17 1092.99 45.17C1093.5 45.17 1093.95 45.2617 1094.33 45.4449C1094.72 45.6282 1095.02 45.8759 1095.22 46.1881C1095.43 46.4935 1095.54 46.8329 1095.54 47.2062C1095.54 47.3758 1095.52 47.5218 1095.49 47.6439L1095.43 47.817C1095.13 47.8781 1094.8 47.929 1094.45 47.9697C1093.7 48.0715 1092.95 48.1224 1092.2 48.1224C1092.2 48.9097 1092.31 49.473 1092.54 49.8124C1092.76 50.145 1093.07 50.3112 1093.47 50.3112C1093.75 50.3112 1094 50.2502 1094.23 50.128C1094.48 49.999 1094.66 49.8328 1094.8 49.6291C1094.94 49.4187 1095.01 49.2049 1095.01 48.9878H1095.27C1095.27 49.2592 1095.19 49.5172 1095.02 49.7615C1094.85 50.0058 1094.61 50.2026 1094.31 50.352C1094 50.4945 1093.65 50.5658 1093.26 50.5658ZM1092.2 47.8679C1092.65 47.8679 1093.02 47.8509 1093.3 47.817C1093.42 47.8102 1093.55 47.7932 1093.68 47.7661C1093.69 47.7322 1093.71 47.6575 1093.74 47.5421C1093.77 47.3724 1093.79 47.1926 1093.79 47.0025C1093.79 46.4392 1093.71 46.0286 1093.56 45.7707C1093.4 45.506 1093.21 45.3736 1092.99 45.3736C1092.46 45.3736 1092.2 46.2051 1092.2 47.8679Z" fill="white"/>
<path d="M917.061 62.5377C916.155 62.5377 915.451 62.3002 914.949 61.8251C914.446 61.3432 914.195 60.6815 914.195 59.8399C914.195 59.2901 914.305 58.8116 914.524 58.4044C914.744 57.9972 915.048 57.685 915.437 57.4678C915.833 57.2506 916.286 57.142 916.796 57.142C917.305 57.142 917.751 57.2336 918.133 57.4169C918.523 57.6001 918.82 57.8479 919.025 58.1601C919.237 58.4655 919.343 58.8048 919.343 59.1781C919.343 59.3478 919.326 59.4937 919.29 59.6159L919.237 59.789C918.933 59.8501 918.604 59.901 918.25 59.9417C917.507 60.0435 916.757 60.0944 916 60.0944C916 60.8817 916.113 61.445 916.339 61.7844C916.566 62.1169 916.877 62.2832 917.274 62.2832C917.55 62.2832 917.804 62.2221 918.038 62.1C918.278 61.971 918.466 61.8047 918.6 61.6011C918.742 61.3907 918.813 61.1769 918.813 60.9597H919.078C919.078 61.2312 918.993 61.4891 918.823 61.7335C918.654 61.9778 918.416 62.1746 918.112 62.3239C917.808 62.4665 917.458 62.5377 917.061 62.5377ZM916 59.8399C916.453 59.8399 916.821 59.8229 917.104 59.789C917.224 59.7822 917.351 59.7652 917.486 59.7381C917.493 59.7041 917.511 59.6295 917.539 59.5141C917.574 59.3444 917.592 59.1646 917.592 58.9745C917.592 58.4112 917.514 58.0006 917.358 57.7427C917.203 57.478 917.015 57.3456 916.796 57.3456C916.265 57.3456 916 58.177 916 59.8399Z" fill="white"/>
<path d="M923.001 62.5377C922.095 62.5377 921.391 62.3002 920.889 61.8251C920.386 61.3432 920.135 60.6815 920.135 59.8399C920.135 58.9983 920.386 58.3399 920.889 57.8648C921.391 57.383 922.095 57.142 923.001 57.142C923.652 57.142 924.141 57.2506 924.466 57.4678C924.799 57.685 924.965 57.9497 924.965 58.2619C924.965 58.4926 924.891 58.6793 924.742 58.8218C924.601 58.9576 924.409 59.0254 924.169 59.0254C924.07 59.0254 923.971 59.0186 923.872 59.0051L923.744 58.9745V57.4474L923.596 57.3965C923.489 57.3626 923.362 57.3456 923.213 57.3456C922.81 57.3456 922.495 57.5289 922.269 57.8954C922.049 58.2619 921.94 58.91 921.94 59.8399C921.94 60.7426 922.049 61.3771 922.269 61.7436C922.495 62.1034 922.81 62.2832 923.213 62.2832C923.489 62.2832 923.744 62.2221 923.978 62.1C924.218 61.971 924.406 61.8047 924.54 61.6011C924.682 61.3907 924.753 61.1769 924.753 60.9597H925.018C925.018 61.2312 924.933 61.4891 924.763 61.7335C924.593 61.9778 924.356 62.1746 924.052 62.3239C923.748 62.4665 923.397 62.5377 923.001 62.5377Z" fill="white"/>
<path d="M926.772 62.2323L927.409 62.0796V57.5492H926.613C926.613 57.9225 926.496 58.2992 926.263 58.6793C926.171 58.8218 926.058 58.9542 925.923 59.0763H925.605V57.2947H930.912V59.0763H930.594C930.459 58.9609 930.343 58.8286 930.244 58.6793C930.017 58.3128 929.904 57.9361 929.904 57.5492H929.108V62.0796L929.745 62.2323V62.385H926.772V62.2323Z" fill="white"/>
<path d="M934.466 62.5377C933.561 62.5377 932.856 62.3002 932.354 61.8251C931.851 61.3432 931.6 60.6815 931.6 59.8399C931.6 59.2901 931.71 58.8116 931.929 58.4044C932.149 57.9972 932.453 57.685 932.842 57.4678C933.239 57.2506 933.691 57.142 934.201 57.142C934.71 57.142 935.156 57.2336 935.538 57.4169C935.928 57.6001 936.225 57.8479 936.43 58.1601C936.642 58.4655 936.749 58.8048 936.749 59.1781C936.749 59.3478 936.731 59.4937 936.696 59.6159L936.642 59.789C936.338 59.8501 936.009 59.901 935.655 59.9417C934.912 60.0435 934.162 60.0944 933.405 60.0944C933.405 60.8817 933.518 61.445 933.744 61.7844C933.971 62.1169 934.282 62.2832 934.679 62.2832C934.955 62.2832 935.209 62.2221 935.443 62.1C935.684 61.971 935.871 61.8047 936.006 61.6011C936.147 61.3907 936.218 61.1769 936.218 60.9597H936.483C936.483 61.2312 936.398 61.4891 936.228 61.7335C936.059 61.9778 935.822 62.1746 935.517 62.3239C935.213 62.4665 934.863 62.5377 934.466 62.5377ZM933.405 59.8399C933.858 59.8399 934.226 59.8229 934.509 59.789C934.629 59.7822 934.756 59.7652 934.891 59.7381C934.898 59.7041 934.916 59.6295 934.944 59.5141C934.979 59.3444 934.997 59.1646 934.997 58.9745C934.997 58.4112 934.919 58.0006 934.764 57.7427C934.608 57.478 934.42 57.3456 934.201 57.3456C933.67 57.3456 933.405 58.177 933.405 59.8399Z" fill="white"/>
<path d="M940.406 62.5377C939.5 62.5377 938.796 62.3002 938.294 61.8251C937.791 61.3432 937.54 60.6815 937.54 59.8399C937.54 58.9983 937.791 58.3399 938.294 57.8648C938.796 57.383 939.5 57.142 940.406 57.142C941.057 57.142 941.546 57.2506 941.871 57.4678C942.204 57.685 942.37 57.9497 942.37 58.2619C942.37 58.4926 942.296 58.6793 942.147 58.8218C942.006 58.9576 941.815 59.0254 941.574 59.0254C941.475 59.0254 941.376 59.0186 941.277 59.0051L941.149 58.9745V57.4474L941.001 57.3965C940.895 57.3626 940.767 57.3456 940.619 57.3456C940.215 57.3456 939.9 57.5289 939.674 57.8954C939.454 58.2619 939.345 58.91 939.345 59.8399C939.345 60.7426 939.454 61.3771 939.674 61.7436C939.9 62.1034 940.215 62.2832 940.619 62.2832C940.895 62.2832 941.149 62.2221 941.383 62.1C941.623 61.971 941.811 61.8047 941.945 61.6011C942.087 61.3907 942.158 61.1769 942.158 60.9597H942.423C942.423 61.2312 942.338 61.4891 942.168 61.7335C941.998 61.9778 941.761 62.1746 941.457 62.3239C941.153 62.4665 940.803 62.5377 940.406 62.5377Z" fill="white"/>
<path d="M944.178 62.2323L944.814 62.0796V57.5492H944.018C944.018 57.9225 943.902 58.2992 943.668 58.6793C943.576 58.8218 943.463 58.9542 943.328 59.0763H943.01V57.2947H948.317V59.0763H947.999C947.864 58.9609 947.748 58.8286 947.649 58.6793C947.422 58.3128 947.309 57.9361 947.309 57.5492H946.513V62.0796L947.15 62.2323V62.385H944.178V62.2323Z" fill="white"/>
<path d="M949.005 62.2323L949.642 62.0796V57.6001L949.005 57.4474V57.2947H951.712C952.328 57.2947 952.834 57.3558 953.23 57.478C953.634 57.6001 953.924 57.7596 954.101 57.9565C954.278 58.1465 954.366 58.3501 954.366 58.5673C954.366 58.8388 954.274 59.0594 954.09 59.229C953.913 59.3987 953.687 59.5209 953.411 59.5955C953.113 59.6838 952.795 59.7313 952.455 59.7381V59.789C952.873 59.7958 953.244 59.8467 953.57 59.9417C953.895 60.0435 954.161 60.1792 954.366 60.3489C954.578 60.5118 954.684 60.7324 954.684 61.0106C954.684 61.4111 954.465 61.7403 954.026 61.9982C953.595 62.2561 952.894 62.385 951.924 62.385H949.005V62.2323ZM951.712 59.6363C951.96 59.6363 952.172 59.5378 952.349 59.341C952.526 59.1442 952.614 58.8863 952.614 58.5673C952.614 58.2687 952.526 58.0243 952.349 57.8343C952.172 57.6443 951.96 57.5492 951.712 57.5492H951.341V59.6363H951.712ZM951.924 62.1305C952.229 62.1305 952.473 62.0321 952.657 61.8353C952.841 61.6384 952.933 61.3636 952.933 61.0106C952.933 60.6577 952.841 60.3828 952.657 60.186C952.473 59.9892 952.229 59.8908 951.924 59.8908H951.341V62.1305H951.924Z" fill="white"/>
<path d="M958.299 62.5377C957.393 62.5377 956.689 62.3002 956.186 61.8251C955.684 61.3432 955.432 60.6815 955.432 59.8399C955.432 59.2901 955.542 58.8116 955.762 58.4044C955.981 57.9972 956.285 57.685 956.674 57.4678C957.071 57.2506 957.524 57.142 958.033 57.142C958.543 57.142 958.989 57.2336 959.371 57.4169C959.76 57.6001 960.057 57.8479 960.262 58.1601C960.475 58.4655 960.581 58.8048 960.581 59.1781C960.581 59.3478 960.563 59.4937 960.528 59.6159L960.475 59.789C960.17 59.8501 959.841 59.901 959.487 59.9417C958.744 60.0435 957.994 60.0944 957.237 60.0944C957.237 60.8817 957.35 61.445 957.577 61.7844C957.803 62.1169 958.115 62.2832 958.511 62.2832C958.787 62.2832 959.042 62.2221 959.275 62.1C959.516 61.971 959.703 61.8047 959.838 61.6011C959.979 61.3907 960.05 61.1769 960.05 60.9597H960.315C960.315 61.2312 960.23 61.4891 960.061 61.7335C959.891 61.9778 959.654 62.1746 959.349 62.3239C959.045 62.4665 958.695 62.5377 958.299 62.5377ZM957.237 59.8399C957.69 59.8399 958.058 59.8229 958.341 59.789C958.461 59.7822 958.589 59.7652 958.723 59.7381C958.73 59.7041 958.748 59.6295 958.776 59.5141C958.812 59.3444 958.829 59.1646 958.829 58.9745C958.829 58.4112 958.751 58.0006 958.596 57.7427C958.44 57.478 958.253 57.3456 958.033 57.3456C957.502 57.3456 957.237 58.177 957.237 59.8399Z" fill="white"/>
<path d="M961.372 62.385V62.2323L962.009 62.0796V57.6001L961.372 57.4474V57.2947H964.345V57.4474L963.708 57.6001V59.6872H965.3V57.6001L964.663 57.4474V57.2947H967.635V57.4474L966.998 57.6001V62.0796L967.635 62.2323V62.385H964.663V62.2323L965.3 62.0796V59.9417H963.708V62.0796L964.345 62.2323V62.385H961.372Z" fill="white"/>
<path d="M968.484 62.385V62.2323L969.121 62.0796V57.6001L968.484 57.4474V57.2947H971.456V57.4474L970.819 57.6001V59.6872H972.411V57.6001L971.774 57.4474V57.2947H974.747V57.4474L974.11 57.6001V62.0796L974.747 62.2323V62.385H971.774V62.2323L972.411 62.0796V59.9417H970.819V62.0796L971.456 62.2323V62.385H968.484Z" fill="white"/>
<path d="M975.595 62.2323L976.232 62.0796V57.6001L975.595 57.4474V57.2947H978.567V57.4474L977.93 57.6001V59.3308H978.461C980.301 59.3308 981.221 59.8399 981.221 60.8579C981.221 61.876 980.301 62.385 978.461 62.385H975.595V62.2323ZM981.433 62.385V62.2323L982.07 62.0796V57.6001L981.433 57.4474V57.2947H984.406V57.4474L983.769 57.6001V62.0796L984.406 62.2323V62.385H981.433ZM978.461 62.1305C978.772 62.1305 979.017 62.0253 979.194 61.8149C979.378 61.5977 979.469 61.2787 979.469 60.8579C979.469 60.4371 979.378 60.1215 979.194 59.9111C979.017 59.694 978.772 59.5854 978.461 59.5854H977.93V62.1305H978.461Z" fill="white"/>
<path d="M988.441 56.5821C987.896 56.5821 987.493 56.5006 987.231 56.3377C986.976 56.1749 986.849 55.9678 986.849 55.7167C986.849 55.5403 986.909 55.3943 987.029 55.279C987.149 55.1636 987.302 55.1059 987.486 55.1059C987.5 55.1059 987.581 55.1161 987.73 55.1364L987.857 55.1568V56.2767C987.864 56.2767 987.914 56.2936 988.006 56.3276C988.105 56.3615 988.25 56.3785 988.441 56.3785C988.632 56.3785 988.774 56.3615 988.866 56.3276C988.965 56.2936 989.018 56.2767 989.025 56.2767V55.1568L989.152 55.1364C989.301 55.1161 989.382 55.1059 989.396 55.1059C989.58 55.1059 989.732 55.1636 989.853 55.279C989.973 55.3943 990.033 55.5403 990.033 55.7167C990.033 55.9678 989.902 56.1749 989.64 56.3377C989.386 56.5006 988.986 56.5821 988.441 56.5821ZM985.256 62.385V62.2323L985.893 62.0796V57.6001L985.256 57.4474V57.2947H988.229V57.4474L987.592 57.6001V60.9597L989.29 58.1601V57.6001L988.653 57.4474V57.2947H991.625V57.4474L990.989 57.6001V62.0796L991.625 62.2323V62.385H988.653V62.2323L989.29 62.0796V58.72L987.592 61.5197V62.0796L988.229 62.2323V62.385H985.256Z" fill="white"/>
<path d="M998.26 62.5377C997.375 62.5377 996.703 62.3172 996.243 61.876C995.783 61.4348 995.553 60.7901 995.553 59.9417V59.3308C995.553 58.1227 995.754 57.2438 996.158 56.6941C996.568 56.1375 997.163 55.7948 997.941 55.6658L1000.38 55.2586L1000.54 54.7496H1000.7V55.6658C1000.7 55.9645 1000.63 56.1952 1000.48 56.3581C1000.33 56.521 1000.1 56.6296 999.799 56.6839L997.357 57.0911C997.117 57.1318 996.887 57.2438 996.667 57.4271C996.448 57.6035 996.267 57.8547 996.126 58.1804C995.991 58.4994 995.924 58.8829 995.924 59.3308C995.995 59.0865 996.137 58.8422 996.349 58.5978C996.568 58.3535 996.841 58.1533 997.166 57.9972C997.499 57.8343 997.863 57.7528 998.26 57.7528C999.137 57.7528 999.806 57.9666 1000.27 58.3942C1000.73 58.815 1000.97 59.3987 1000.97 60.1453C1000.97 60.8919 1000.73 61.479 1000.27 61.9065C999.806 62.3273 999.137 62.5377 998.26 62.5377ZM998.26 62.3341C998.514 62.3341 998.727 62.1678 998.896 61.8353C999.073 61.5027 999.162 60.9394 999.162 60.1453C999.162 59.3512 999.073 58.7879 998.896 58.4553C998.727 58.1227 998.514 57.9565 998.26 57.9565C998.005 57.9565 997.789 58.1227 997.612 58.4553C997.442 58.7879 997.357 59.3512 997.357 60.1453C997.357 60.9394 997.442 61.5027 997.612 61.8353C997.789 62.1678 998.005 62.3341 998.26 62.3341Z" fill="white"/>
<path d="M1003.88 62.5377C1003.25 62.5377 1002.77 62.4088 1002.43 62.1509C1002.09 61.893 1001.92 61.5638 1001.92 61.1634C1001.92 60.8987 1001.98 60.6374 1002.1 60.3794C1002.15 60.2573 1002.21 60.1453 1002.29 60.0435C1002.58 59.9756 1002.89 59.9145 1003.23 59.8602C1004 59.7381 1004.67 59.6634 1005.26 59.6363V59.3308C1005.26 58.5775 1005.17 58.0583 1004.97 57.7732C1004.78 57.4881 1004.49 57.3456 1004.09 57.3456C1003.95 57.3456 1003.82 57.3626 1003.71 57.3965L1003.56 57.4474V58.9745L1003.42 59.0051C1003.31 59.0186 1003.22 59.0254 1003.14 59.0254C1002.9 59.0254 1002.7 58.9576 1002.55 58.8218C1002.41 58.6793 1002.34 58.4926 1002.34 58.2619C1002.34 57.9497 1002.5 57.685 1002.83 57.4678C1003.16 57.2506 1003.65 57.142 1004.31 57.142C1004.86 57.142 1005.33 57.237 1005.73 57.4271C1006.13 57.6103 1006.44 57.8682 1006.64 58.2008C1006.85 58.5266 1006.96 58.9033 1006.96 59.3308V62.0796L1007.6 62.2323V62.385H1006.64C1006.22 62.385 1005.89 62.2595 1005.65 62.0083C1005.56 61.9065 1005.48 61.7776 1005.42 61.6215C1005.32 61.7912 1005.2 61.9439 1005.07 62.0796C1004.75 62.385 1004.36 62.5377 1003.88 62.5377ZM1004.31 62.1814C1004.57 62.1814 1004.8 62.0457 1005.02 61.7742C1005.1 61.6724 1005.18 61.5366 1005.26 61.367V59.8908C1004.94 59.8908 1004.62 59.9077 1004.33 59.9417C1004.11 59.9688 1003.96 59.9858 1003.88 59.9926C1003.85 60.0672 1003.81 60.169 1003.78 60.298C1003.7 60.5559 1003.67 60.8104 1003.67 61.0615C1003.67 61.4416 1003.73 61.7233 1003.85 61.9065C1003.97 62.0898 1004.12 62.1814 1004.31 62.1814Z" fill="white"/>
<path d="M1008.13 64.2684L1008.77 64.1157V57.6001L1008.13 57.4474V57.2947H1009.09C1009.51 57.2947 1009.83 57.4237 1010.07 57.6816C1010.17 57.7834 1010.24 57.9089 1010.31 58.0583C1010.4 57.8818 1010.52 57.7291 1010.66 57.6001C1010.98 57.2947 1011.37 57.142 1011.85 57.142C1012.27 57.142 1012.64 57.2472 1012.96 57.4576C1013.29 57.6612 1013.55 57.9666 1013.74 58.3739C1013.93 58.7743 1014.02 59.263 1014.02 59.8399C1014.02 60.7086 1013.81 61.3771 1013.39 61.8455C1012.97 62.307 1012.4 62.5377 1011.69 62.5377C1011.35 62.5377 1011.05 62.4699 1010.8 62.3341C1010.69 62.2866 1010.58 62.2187 1010.47 62.1305V64.1157L1011.1 64.2684V64.4211H1008.13V64.2684ZM1011.26 62.2323C1011.57 62.2323 1011.8 62.0626 1011.96 61.7233C1012.13 61.3839 1012.22 60.7561 1012.22 59.8399C1012.22 58.9643 1012.14 58.3569 1011.99 58.0175C1011.84 57.6714 1011.65 57.4983 1011.42 57.4983C1011.15 57.4983 1010.91 57.6341 1010.7 57.9056C1010.61 58.0209 1010.53 58.1567 1010.47 58.3128V61.8251C1010.57 61.9201 1010.64 61.988 1010.7 62.0287C1010.89 62.1644 1011.08 62.2323 1011.26 62.2323Z" fill="white"/>
<path d="M1014.87 62.2323L1015.51 62.0796V57.6001L1014.87 57.4474V57.2947H1017.85V57.4474L1017.21 57.6001V59.3308H1017.74C1019.58 59.3308 1020.5 59.8399 1020.5 60.8579C1020.5 61.876 1019.58 62.385 1017.74 62.385H1014.87V62.2323ZM1017.74 62.1305C1018.05 62.1305 1018.29 62.0253 1018.47 61.8149C1018.66 61.5977 1018.75 61.2787 1018.75 60.8579C1018.75 60.4371 1018.66 60.1215 1018.47 59.9111C1018.29 59.694 1018.05 59.5854 1017.74 59.5854H1017.21V62.1305H1017.74Z" fill="white"/>
<path d="M1024.1 62.5377C1023.2 62.5377 1022.49 62.3002 1021.99 61.8251C1021.49 61.3432 1021.24 60.6815 1021.24 59.8399C1021.24 59.2901 1021.35 58.8116 1021.57 58.4044C1021.79 57.9972 1022.09 57.685 1022.48 57.4678C1022.88 57.2506 1023.33 57.142 1023.84 57.142C1024.35 57.142 1024.79 57.2336 1025.18 57.4169C1025.57 57.6001 1025.86 57.8479 1026.07 58.1601C1026.28 58.4655 1026.39 58.8048 1026.39 59.1781C1026.39 59.3478 1026.37 59.4937 1026.33 59.6159L1026.28 59.789C1025.98 59.8501 1025.65 59.901 1025.29 59.9417C1024.55 60.0435 1023.8 60.0944 1023.04 60.0944C1023.04 60.8817 1023.16 61.445 1023.38 61.7844C1023.61 62.1169 1023.92 62.2832 1024.32 62.2832C1024.59 62.2832 1024.85 62.2221 1025.08 62.1C1025.32 61.971 1025.51 61.8047 1025.64 61.6011C1025.78 61.3907 1025.86 61.1769 1025.86 60.9597H1026.12C1026.12 61.2312 1026.04 61.4891 1025.87 61.7335C1025.7 61.9778 1025.46 62.1746 1025.15 62.3239C1024.85 62.4665 1024.5 62.5377 1024.1 62.5377ZM1023.04 59.8399C1023.5 59.8399 1023.86 59.8229 1024.15 59.789C1024.27 59.7822 1024.39 59.7652 1024.53 59.7381C1024.54 59.7041 1024.55 59.6295 1024.58 59.5141C1024.62 59.3444 1024.63 59.1646 1024.63 58.9745C1024.63 58.4112 1024.56 58.0006 1024.4 57.7427C1024.25 57.478 1024.06 57.3456 1023.84 57.3456C1023.31 57.3456 1023.04 58.177 1023.04 59.8399Z" fill="white"/>
<path d="M1027.07 64.2684L1027.71 64.1157V57.6001L1027.07 57.4474V57.2947H1028.03C1028.44 57.2947 1028.77 57.4237 1029.01 57.6816C1029.11 57.7834 1029.18 57.9089 1029.25 58.0583C1029.34 57.8818 1029.46 57.7291 1029.6 57.6001C1029.92 57.2947 1030.31 57.142 1030.79 57.142C1031.2 57.142 1031.58 57.2472 1031.9 57.4576C1032.23 57.6612 1032.49 57.9666 1032.68 58.3739C1032.87 58.7743 1032.96 59.263 1032.96 59.8399C1032.96 60.7086 1032.75 61.3771 1032.33 61.8455C1031.91 62.307 1031.34 62.5377 1030.63 62.5377C1030.29 62.5377 1029.99 62.4699 1029.74 62.3341C1029.63 62.2866 1029.52 62.2187 1029.41 62.1305V64.1157L1030.04 64.2684V64.4211H1027.07V64.2684ZM1030.2 62.2323C1030.51 62.2323 1030.74 62.0626 1030.9 61.7233C1031.07 61.3839 1031.16 60.7561 1031.16 59.8399C1031.16 58.9643 1031.08 58.3569 1030.93 58.0175C1030.78 57.6714 1030.59 57.4983 1030.36 57.4983C1030.09 57.4983 1029.85 57.6341 1029.64 57.9056C1029.55 58.0209 1029.47 58.1567 1029.41 58.3128V61.8251C1029.51 61.9201 1029.58 61.988 1029.64 62.0287C1029.83 62.1644 1030.02 62.2323 1030.2 62.2323Z" fill="white"/>
<path d="M1034.66 62.4868C1034.45 62.4868 1034.26 62.4122 1034.1 62.2629C1033.94 62.1068 1033.87 61.9269 1033.87 61.7233C1033.87 61.5197 1033.94 61.3432 1034.1 61.1939C1034.26 61.0378 1034.45 60.9597 1034.66 60.9597C1034.87 60.9597 1035.06 61.0378 1035.21 61.1939C1035.38 61.3432 1035.46 61.5197 1035.46 61.7233C1035.46 61.9269 1035.38 62.1068 1035.21 62.2629C1035.06 62.4122 1034.87 62.4868 1034.66 62.4868Z" fill="white"/>
</g>
<g style="mix-blend-mode:darken" opacity="0.48" filter="url(#filter1_f_884_4)">
<ellipse cx="969" cy="641" rx="106" ry="33" fill="#121212"/>
</g>
<defs>
<filter id="filter0_f_884_4" x="287.164" y="591.164" width="644.672" height="85.6721" filterUnits="userSpaceOnUse" color-interpolation-filters="sRGB">
<feFlood flood-opacity="0" result="BackgroundImageFix"/>
<feBlend mode="normal" in="SourceGraphic" in2="BackgroundImageFix" result="shape"/>
<feGaussianBlur stdDeviation="10.418" result="effect1_foregroundBlur_884_4"/>
</filter>
<filter id="filter1_f_884_4" x="842.164" y="587.164" width="253.672" height="107.672" filterUnits="userSpaceOnUse" color-interpolation-filters="sRGB">
<feFlood flood-opacity="0" result="BackgroundImageFix"/>
<feBlend mode="normal" in="SourceGraphic" in2="BackgroundImageFix" result="shape"/>
<feGaussianBlur stdDeviation="10.418" result="effect1_foregroundBlur_884_4"/>
</filter>
<radialGradient id="paint0_radial_884_4" cx="0" cy="0" r="1" gradientUnits="userSpaceOnUse" gradientTransform="translate(720 602) scale(720 135)">
<stop/>
<stop offset="1" stop-color="#393939"/>
</radialGradient>
<clipPath id="clip0_884_4">
<rect width="318" height="657" fill="white" transform="translate(809)"/>
</clipPath>
</defs>
</svg>
